<?xml version="1.0" encoding="UTF-8"?>
<svg version="1.1" viewBox="0 0 1600 360" width="1280" height="1280" xmlns="http://www.w3.org/2000/svg">
<path transform="translate(1507,93)" d="m0 0c1.02 0.974 2.03 1.97 3 3 0.536 0.495 1.07 0.99 1.62 1.5 1.37 1.5 1.37 1.5 2.38 4.5h2c0.103 0.743 0.206 1.48 0.312 2.25 0.749 3 1.85 4.31 3.69 6.75 8.48 16.1 7.54 36.9 2.29 53.9-4.19 12.3-11 24.3-22.3 31.1-2.53 0.993-4.98 1.88-7.56 2.69-0.646 0.212-1.29 0.424-1.96 0.643-3.46 1.12-6.89 2.04-10.5 2.67 0.33 0.99 0.66 1.98 1 3 0.149 1.35 0.272 2.71 0.375 4.06 0.336 3.4 1.02 6.34 2.13 9.57 1.68 5.47 2.03 10.6 1.99 16.2-5e-3 0.964-0.00999 1.93-0.0151 2.92-0.186 7.61-1.53 13.6-5.48 20.2-0.446 0.791-0.892 1.58-1.35 2.4-8.88 14.5-22.3 22.6-38.6 26.6-21.3 5.02-43.3 2.46-62.2-8.82-10.4-6.7-16.4-15.2-21.8-26.2-0.538-1.07-0.538-1.07-1.09-2.16-0.302-0.607-0.603-1.21-0.914-1.84-0.369-0.572-0.737-1.14-1.12-1.73-1.34-3.44-1.09-6.88-1.01-10.5 0.00902-0.745 0.018-1.49 0.0273-2.26 0.0235-1.83 0.0593-3.66 0.0977-5.49-1.43 3.33-2.36 6.44-3 10-2.99 13.1-9.37 24.7-20 33-14 8.58-28.3 10.5-44.1 7.02-6.75-1.67-13.3-4.14-18.9-8.27-2.93-1.09-2.93-1.09-5.35 0.488-1.9 1.25-3.79 2.53-5.66 3.84-10.6 6.99-23.9 8.31-36.3 8.3-1.5 8.46e-4 -1.5 8.46e-4 -3.02 0.00171-17.5-0.26-17.5-0.26-22.6-5.38-6.36 0.534-12.4 1.95-18.6 3.44-33.8 7.81-72.6 10-103-8.44l-2.64-2.28c-2.15-1.95-2.15-1.95-4.36-1.6-0.66 0.289-1.32 0.578-2 0.875-0.77 0.307-1.54 0.614-2.33 0.93-0.88 0.353-1.76 0.706-2.67 1.07-2.22 0.729-4.45 1.44-6.69 2.12-1.06 0.333-2.11 0.665-3.2 1.01-12.9 3.59-28.1 3.62-40.5-1.36-4.28-1.28-6.78-0.175-10.7 1.75-1.7 0.917-1.7 0.917-3.43 1.85-6.3 3.28-12.4 5.31-19.4 6.62-1.16 0.227-2.31 0.454-3.5 0.688-16.1 1.44-31.4-1.22-44.2-11.6-3.36-3.03-5.83-6.31-8.25-10.1v-2c-0.487 0.401-0.975 0.802-1.48 1.21-24.3 19.5-51.9 28.3-83.1 25-14.6-1.88-34.7-7.46-45.4-18.2-3.22 0.349-5.01 1.63-7.44 3.69-15.6 11.9-36.4 15.1-55.6 13.3-11.2-1.56-23-5.23-31.4-12.9-2.32-2.28-2.32-2.28-4.94-2.19-2.34 1-4.19 2.11-6.31 3.5-10.9 7.06-24.4 7.66-37 5.43-6.83-1.63-14.1-3.61-19.9-7.52-2.3-1.47-2.3-1.47-4.75-1.21-2.84 0.994-5.43 2.28-8.07 3.71-15.4 8.32-34.5 11.6-51.7 7.35-2.09-0.658-4.17-1.37-6.22-2.16-5.6-2.08-9.31-2.07-15-0.285-33 9.56-74.4 12.5-106-3.56-6.35-3.84-12.9-8.53-17.8-14.1v-2c-0.958 0.629-1.92 1.26-2.9 1.91-30.5 19.7-70.8 32.4-107 25-13-3.65-23-11.2-29.8-22.9-1.55-3.61-2.85-7.25-4-11h-2c-4.39-24-6.17-47.9-6.19-72.2-0.00109-0.715-0.00218-1.43-0.0033-2.17 0.0024-13.9 0.32-27.9 2.44-41.6 0.127-0.829 0.254-1.66 0.385-2.51 3.04-18.4 9.32-34.6 24.2-46.7 19-13.3 45.1-11.7 66.9-8 3.79 0.696 7.55 1.47 11.3 2.31 0.842 0.187 1.68 0.374 2.55 0.567 14.8 3.42 27.3 9.22 39.4 18.4 0.959-0.99 0.959-0.99 1.94-2 1.02-1 2.04-2 3.06-3 0.655-0.639 1.31-1.28 1.98-1.94 9.85-9.22 21.1-12.9 34-16.1 1.01-0.252 1.01-0.252 2.05-0.509 27.9-6.55 66.5-6.1 91.8 8.7 2.36 1.5 4.21 2.83 6.19 4.81 1.99 1.35 3.99 2.69 6 4v-2c11.2-9.62 22.7-13.2 37.1-13.2 0.982-0.0206 1.96-0.0413 2.98-0.0625 8.01-0.0422 15.2 1.32 22.6 4.43 4.42 1.67 8.22-0.383 12.4-2.05 15.4-5.66 33.4-6.16 48.7 0.0625 1.45 0.695 2.89 1.42 4.3 2.2 3.68 1.28 6.54-0.156 9.98-1.67 2.17-1.06 4.33-2.12 6.5-3.19 15.1-6.44 32.9-5.62 48.1-0.348 6.19 2.53 11.7 5.94 16.3 10.9v3c1.25 2.16 1.25 2.16 2.88 4.38 1.73 2.43 3.08 4.49 4.13 7.29 0.875 2.65 0.875 2.65 3.99 4.34 0.878-1 0.878-1 1.77-2.02 16.6-17.8 39.7-27.9 63.9-29.3 23.1-0.809 45.9 5.17 65.7 17.1 2.41 1.35 2.41 1.35 4.67 1.1 2.4-1.16 3.89-2.65 5.77-4.54 12.8-11.7 28.8-15 45.6-14.8 1.21 0.0087 2.43 0.0174 3.68 0.0264 28.2 0.453 58.9 6.52 81 25 1.68 1.52 1.68 1.52 3.78 1.32 1.07-1.31 2.08-2.68 3.06-4.06 8.57-11.3 19.9-16 33.2-19.6 0.746-0.203 1.49-0.405 2.26-0.614 13-3.32 25.9-4.07 39.2-4.01 0.793 0.00182 1.59 0.00365 2.4 0.00552 21.4 0.0828 46.8 1.92 63.2 17.5 0.826 0.884 0.826 0.884 1.67 1.79 2.85-1.32 5.14-2.83 7.56-4.81 13.3-10.2 29.5-10.9 45.6-8.92 4.16 0.749 8.15 1.76 11.8 3.9 4.13 1.72 8.15-0.534 12.1-2.1 16.3-6 35-6.08 51 1 0.651 0.321 1.3 0.642 1.97 0.973 0.648 0.318 1.3 0.637 1.96 0.965 0.708 0.434 1.42 0.869 2.14 1.32 4.58 1.1 8.18-0.816 12.5-2.44 47.1-16.6 120-20.3 162 10.1zm-150 100c-2.6 3.9-2.15 7.47-2 12 2.81-1.4 2.92-3.11 4-6 0.371-0.722 0.743-1.44 1.12-2.19 1.02-1.78 1.02-1.78 0.875-3.81h-4zm-1 12 1 2zm-1 3 1 2zm-1089 16 1 3zm1 9 1 2zm1 6 1 2zm1085 3 1 2zm-1084 2 1 2z" fill="#000102"/>
<path transform="translate(1507,93)" d="m0 0c1.02 0.974 2.03 1.97 3 3 0.536 0.495 1.07 0.99 1.62 1.5 1.37 1.5 1.37 1.5 2.38 4.5h2c0.103 0.743 0.206 1.48 0.312 2.25 0.749 3 1.85 4.31 3.69 6.75 8.48 16.1 7.54 36.9 2.29 53.9-4.19 12.3-11 24.3-22.3 31.1-2.53 0.993-4.98 1.88-7.56 2.69-0.646 0.212-1.29 0.424-1.96 0.643-3.46 1.12-6.89 2.04-10.5 2.67 0.33 0.99 0.66 1.98 1 3 0.149 1.35 0.272 2.71 0.375 4.06 0.336 3.4 1.02 6.34 2.13 9.57 1.68 5.47 2.03 10.6 1.99 16.2-5e-3 0.964-0.00999 1.93-0.0151 2.92-0.186 7.61-1.53 13.6-5.48 20.2-0.446 0.791-0.892 1.58-1.35 2.4-8.88 14.5-22.3 22.6-38.6 26.6-21.3 5.02-43.3 2.46-62.2-8.82-10.4-6.7-16.4-15.2-21.8-26.2-0.538-1.07-0.538-1.07-1.09-2.16-0.302-0.607-0.603-1.21-0.914-1.84-0.369-0.572-0.737-1.14-1.12-1.73-1.34-3.44-1.09-6.88-1.01-10.5 0.00902-0.745 0.018-1.49 0.0273-2.26 0.0235-1.83 0.0593-3.66 0.0977-5.49-1.43 3.33-2.36 6.44-3 10-2.99 13.1-9.37 24.7-20 33-14 8.58-28.3 10.5-44.1 7.02-6.75-1.67-13.3-4.14-18.9-8.27-2.93-1.09-2.93-1.09-5.35 0.488-1.9 1.25-3.79 2.53-5.66 3.84-10.6 6.99-23.9 8.31-36.3 8.3-1.5 8.46e-4 -1.5 8.46e-4 -3.02 0.00171-17.5-0.26-17.5-0.26-22.6-5.38-6.36 0.534-12.4 1.95-18.6 3.44-33.8 7.81-72.6 10-103-8.44l-2.64-2.28c-2.15-1.95-2.15-1.95-4.36-1.6-0.66 0.289-1.32 0.578-2 0.875-0.77 0.307-1.54 0.614-2.33 0.93-0.88 0.353-1.76 0.706-2.67 1.07-2.22 0.729-4.45 1.44-6.69 2.12-1.06 0.333-2.11 0.665-3.2 1.01-12.9 3.59-28.1 3.62-40.5-1.36-4.28-1.28-6.78-0.175-10.7 1.75-1.7 0.917-1.7 0.917-3.43 1.85-6.3 3.28-12.4 5.31-19.4 6.62-1.16 0.227-2.31 0.454-3.5 0.688-16.1 1.44-31.4-1.22-44.2-11.6-3.36-3.03-5.83-6.31-8.25-10.1v-2c-0.487 0.401-0.975 0.802-1.48 1.21-24.3 19.5-51.9 28.3-83.1 25-14.6-1.88-34.7-7.46-45.4-18.2-3.22 0.349-5.01 1.63-7.44 3.69-15.6 11.9-36.4 15.1-55.6 13.3-11.2-1.56-23-5.23-31.4-12.9-2.32-2.28-2.32-2.28-4.94-2.19-2.34 1-4.19 2.11-6.31 3.5-10.9 7.06-24.4 7.66-37 5.43-6.83-1.63-14.1-3.61-19.9-7.52-2.3-1.47-2.3-1.47-4.75-1.21-2.84 0.994-5.43 2.28-8.07 3.71-15.4 8.32-34.5 11.6-51.7 7.35-2.09-0.658-4.17-1.37-6.22-2.16-5.6-2.08-9.31-2.07-15-0.285-33 9.56-74.4 12.5-106-3.56-6.35-3.84-12.9-8.53-17.8-14.1v-2c-0.958 0.629-1.92 1.26-2.9 1.91-30.5 19.7-70.8 32.4-107 25-13-3.65-23-11.2-29.8-22.9-1.55-3.61-2.85-7.25-4-11h-2c-4.39-24-6.17-47.9-6.19-72.2-0.00109-0.715-0.00218-1.43-0.0033-2.17 0.0024-13.9 0.32-27.9 2.44-41.6 0.127-0.829 0.254-1.66 0.385-2.51 3.04-18.4 9.32-34.6 24.2-46.7 19-13.3 45.1-11.7 66.9-8 3.79 0.696 7.55 1.47 11.3 2.31 0.842 0.187 1.68 0.374 2.55 0.567 14.8 3.42 27.3 9.22 39.4 18.4 0.959-0.99 0.959-0.99 1.94-2 1.02-1 2.04-2 3.06-3 0.655-0.639 1.31-1.28 1.98-1.94 9.85-9.22 21.1-12.9 34-16.1 1.01-0.252 1.01-0.252 2.05-0.509 27.9-6.55 66.5-6.1 91.8 8.7 2.36 1.5 4.21 2.83 6.19 4.81 1.99 1.35 3.99 2.69 6 4v-2c11.2-9.62 22.7-13.2 37.1-13.2 0.982-0.0206 1.96-0.0413 2.98-0.0625 8.01-0.0422 15.2 1.32 22.6 4.43 4.42 1.67 8.22-0.383 12.4-2.05 15.4-5.66 33.4-6.16 48.7 0.0625 1.45 0.695 2.89 1.42 4.3 2.2 3.68 1.28 6.54-0.156 9.98-1.67 2.17-1.06 4.33-2.12 6.5-3.19 15.1-6.44 32.9-5.62 48.1-0.348 6.19 2.53 11.7 5.94 16.3 10.9v3c1.25 2.16 1.25 2.16 2.88 4.38 1.73 2.43 3.08 4.49 4.13 7.29 0.875 2.65 0.875 2.65 3.99 4.34 0.878-1 0.878-1 1.77-2.02 16.6-17.8 39.7-27.9 63.9-29.3 23.1-0.809 45.9 5.17 65.7 17.1 2.41 1.35 2.41 1.35 4.67 1.1 2.4-1.16 3.89-2.65 5.77-4.54 12.8-11.7 28.8-15 45.6-14.8 1.21 0.0087 2.43 0.0174 3.68 0.0264 28.2 0.453 58.9 6.52 81 25 1.68 1.52 1.68 1.52 3.78 1.32 1.07-1.31 2.08-2.68 3.06-4.06 8.57-11.3 19.9-16 33.2-19.6 0.746-0.203 1.49-0.405 2.26-0.614 13-3.32 25.9-4.07 39.2-4.01 0.793 0.00182 1.59 0.00365 2.4 0.00552 21.4 0.0828 46.8 1.92 63.2 17.5 0.826 0.884 0.826 0.884 1.67 1.79 2.85-1.32 5.14-2.83 7.56-4.81 13.3-10.2 29.5-10.9 45.6-8.92 4.16 0.749 8.15 1.76 11.8 3.9 4.13 1.72 8.15-0.534 12.1-2.1 16.3-6 35-6.08 51 1 0.651 0.321 1.3 0.642 1.97 0.973 0.648 0.318 1.3 0.637 1.96 0.965 0.708 0.434 1.42 0.869 2.14 1.32 4.58 1.1 8.18-0.816 12.5-2.44 47.1-16.6 120-20.3 162 10.1zm-173 7c-0.571-0.459-1.14-0.918-1.73-1.39-13.8-10.4-28.5-11.1-45.3-9.61-5.74 0.918-10.7 2.95-15.4 6.31-2.56 1.69-2.56 1.69-4.85 1.45-4.1-1.15-7.89-2.9-11.8-4.61-11.9-4.7-26.4-3.2-38.1 1.36-7.39 3.81-12.7 10.1-17.9 16.5-2.47-0.495-2.47-0.495-5-1-0.0748-0.906-0.15-1.81-0.227-2.75-1.52-6.39-7.79-9.41-13.1-12.7-14.8-7.63-31.9-9-48.2-9.49-1.09-0.0361-1.09-0.0361-2.21-0.0729-2.1-0.0627-4.19-0.107-6.29-0.142-1.82-0.0308-1.82-0.0308-3.69-0.0623-3.23 0.213-5.32 0.916-8.25 2.21-1.85 0.219-3.71 0.433-5.57 0.581-15.6 1.24-31.2 5.65-42.2 17.2-4.41 5.33-7.19 11.3-7.19 18.2-3.88-1.75-3.88-1.75-5-4h-2c-0.66-1.32-1.32-2.64-2-4h-2c-0.227-0.578-0.454-1.16-0.688-1.75-3.03-5.19-8.6-7.64-13.8-10.2-0.707-0.348-1.41-0.695-2.14-1.05-25.6-12.4-60.9-20.1-88.9-11.2-8.83 3.68-15.9 9.27-22.4 16.2-1.33 1.34-2.66 2.67-4 4-2.23-1.27-4.46-2.54-6.69-3.81-0.939-0.535-0.939-0.535-1.9-1.08-0.616-0.351-1.23-0.703-1.87-1.06-0.918-0.523-0.918-0.523-1.85-1.06-1.42-0.824-2.81-1.69-4.2-2.56-13.2-7.52-30.4-11.9-45.5-12.4-0.781-0.04-1.56-0.0799-2.37-0.121-24-0.668-44.6 8.88-62.6 24.1-5.03 4.77-8.5 10.7-12.2 16.5-1.83 2.48-1.83 2.48-4.83 3.48-0.219-1.13-0.438-2.25-0.664-3.41-3.77-20.2-3.77-20.2-15.9-36.1-3.95-2.46-7.99-4.14-12.4-5.51-1.08-0.367-2.15-0.735-3.26-1.11-4.34-1.03-8.01-1.01-12.4-0.699-0.79 0.0526-1.58 0.105-2.39 0.159-11.9 0.918-23.4 3.55-31.9 12.7-4.29-1.33-8.15-2.99-12.1-5.06-11.3-5.88-27.2-6.16-39.5-2.93-5.07 1.79-9.1 3.77-13.4 6.99-2.5 0.375-2.5 0.375-5 0-0.608-0.458-1.22-0.915-1.84-1.39-9.5-7.11-22.9-6.81-34.2-5.61-6.99 1.53-14 3.77-19 9-1.45 1.18-1.45 1.18-2.94 2.38-2.76 2.28-4.99 4.68-7.06 7.62v2c-3.48-1.16-3.66-1.69-5.38-4.75-5.11-9.1-14.1-13.9-23.8-16.9-29-7.92-68-8.45-95.2 5.95-8.8 5.2-13.9 12.4-17.6 21.7-4.67-2.06-7.42-4.42-11-8-1.68-1.37-3.39-2.7-5.12-4-0.848-0.639-1.7-1.28-2.57-1.94-8.52-5.32-17.3-8.14-27.1-10.2-1.15-0.254-2.3-0.508-3.48-0.77-22.5-4.88-48.3-8.97-68.8 3.96-1.55 0.835-1.55 0.835-3.12 1.69-12.7 10.2-15.9 27-17.9 42.3-0.104 0.763-0.209 1.53-0.316 2.31-4.54 34.8-9.76 97.7 12.3 127 8.01 9.33 19.1 12 31 13 32.6 1.07 66.6-6.81 91.8-28.4 2.16-1.59 3.6-2.22 6.23-2.64l1.25 1.72c12.7 16.9 29 23.7 49.4 26.9 6.33 0.743 12.7 0.785 19 0.768 0.716-2.11e-4 1.43-4.23e-4 2.17-6.41e-4 18.2-0.0532 35.8-2.35 53-8.32 7.16-2.42 7.16-2.42 10.5-1.12 0.798 0.458 1.6 0.915 2.42 1.39 6.96 3.96 13.7 5.04 21.6 4.94 0.745-0.00677 1.49-0.0135 2.26-0.0205 14.5-0.272 27.1-4.84 38.5-13.9 1.89-1.32 1.89-1.32 4.14-1.32 3.2 1.16 5.74 2.82 8.59 4.66 11.5 7.08 24.7 9.05 38 6.87 7.66-1.99 14-6.54 19.2-12.5v-2c1.32-0.33 2.64-0.66 4-1l0.688 2.19c4.04 8.65 14.2 13.8 22.8 17 18.1 5.84 37.5 3.33 54.3-5.05 4.09-2.18 7.1-4.69 10.3-8.13 0.598-0.557 1.2-1.11 1.81-1.69 1.41-1.26 1.41-1.26 1.19-3.31 3.87 0.537 5.97 1.59 9 4h2v2c23.4 13.2 49.8 21.3 76.8 14.3 17.3-5.1 34.3-13.5 45.2-28.3 0.7-1.32 1.38-2.65 2-4 3.64 2.43 4.1 4.13 5.75 8.12 5.44 12 12.3 16.8 24.2 21.9 4.53 1.35 8.99 1.18 13.7 1.19 0.86 0.0122 1.72 0.0245 2.61 0.0371 8.39 0.019 15.6-1.48 23.3-4.85 1.03-0.446 2.07-0.892 3.13-1.35 1.14-0.507 1.14-0.507 2.31-1.02v-2c0.784-0.0825 1.57-0.165 2.38-0.25 2.77-0.478 2.77-0.478 3.94-2.81 0.227-0.639 0.454-1.28 0.688-1.94 3.35 0.432 6.05 1.44 9.06 2.88 9.01 4.08 17.2 5.81 26.9 4.12 1.11-0.124 2.23-0.248 3.38-0.375 10.5-1.81 18.8-4.72 27.6-10.6 1.05 0.748 2.1 1.5 3.18 2.27 27.9 19.7 61.7 21.4 94.8 15.8 8.54-1.67 16.8-4.3 25.1-7.07v-2c9.61 3.81 9.61 3.81 13.8 5.69 14 5.78 31.5 2.46 45.2-2.86 4.1-1.89 7.22-3.84 10.3-7.14 2.69-2.69 2.69-2.69 5.19-3.38 2.5 0.688 2.5 0.688 5.19 3.03 3.33 2.85 6.74 4.38 10.8 5.91 0.638 0.255 1.28 0.51 1.93 0.773 11 4.29 25 5.11 36 0.359 14.3-7.84 19.4-19.8 23.8-34.8 3.28-12.1 4.73-24.3 6.01-36.8 0.236-2.26 0.482-4.53 0.73-6.79 0.102-1.04 0.102-1.04 0.205-2.1 0.183-1.66 0.462-3.3 0.76-4.94 2.66-1.33 4.69-1.11 7.66-1.1 1.68 0.00483 1.68 0.00483 3.4 0.00977 1.18 0.00838 2.35 0.0168 3.56 0.0254 1.18 0.00451 2.37 0.00902 3.59 0.0137 2.93 0.0118 5.86 0.0283 8.79 0.0488-2.5 8.32-5.14 16.5-8.44 24.5-6.11 16.4-7.79 30.8-0.324 47.2 1.17 2.17 2.41 4.23 3.76 6.28 0.557 0.866 1.11 1.73 1.69 2.62 12.6 13 30.6 18.2 48.2 18.6 5.89-0.0598 11.4-0.85 17.1-2.19 0.821-0.183 1.64-0.366 2.49-0.555 9.07-2.34 17.5-7.27 24.5-13.4 0.693-1.66 1.36-3.32 2-5 0.99-0.33 1.98-0.66 3-1 1.44-2.38 1.44-2.38 2.62-5.25 0.425-0.954 0.851-1.91 1.29-2.89 6.07-16 1.47-36.7-4.91-51.9-0.536-0.668-1.07-1.34-1.62-2.02-1.72-2.47-1.62-4.03-1.38-6.98 1.03 0.179 2.05 0.358 3.11 0.543 10.4 1.66 19 2 28.1-4.11 0.928-0.804 1.86-1.61 2.81-2.44v-2c0.599-0.244 1.2-0.487 1.82-0.738 8-4.62 10.9-17.9 13.2-26.3 3.37-15.3 2.53-34.6-5.81-48.1-1.02-1.34-2.08-2.66-3.19-3.94-0.683-0.806-0.683-0.806-1.38-1.63-19.4-19.4-60.5-21.3-86-21.5-26.3 0.221-61.5 0.964-83.6 17.1zm23 93c-2.6 3.9-2.15 7.47-2 12 2.81-1.4 2.92-3.11 4-6 0.371-0.722 0.743-1.44 1.12-2.19 1.02-1.78 1.02-1.78 0.875-3.81h-4zm-1 12 1 2zm-1 3 1 2zm-1089 16 1 3zm1 9 1 2zm1 6 1 2zm1085 3 1 2zm-1084 2 1 2z" fill="#DADDDE"/>
<path transform="translate(164 92.2)" d="m0 0c4.02 1.67 7.51 4.23 11.1 6.64 0.824 0.534 1.65 1.07 2.5 1.62 0.788 0.524 1.58 1.05 2.39 1.59 1.08 0.713 1.08 0.713 2.18 1.44 2.01 1.71 2.67 3.2 3.82 5.54 1.52 1.29 1.52 1.29 3.34 2.25 0.652 0.38 1.3 0.759 1.98 1.15 0.681 0.382 1.36 0.764 2.06 1.16 11.4 6.51 11.4 6.51 14.6 12.4 0.33 0.33 0.66 0.66 1 1 0.716-7.23 1.06-13.8 0-21 0.33-0.99 0.66-1.98 1-3 2.77-0.922 4.38-1.12 7.23-1.1 1.2 0.00483 1.2 0.00483 2.43 0.00977 0.833 0.00838 1.67 0.0168 2.53 0.0254 0.845 0.00451 1.69 0.00902 2.56 0.0137 2.08 0.0118 4.17 0.0297 6.25 0.0488 0 6.36-0.011 12.7-0.219 19.1-0.0222 0.684-0.0444 1.37-0.0673 2.07-0.0709 2.18-0.142 4.36-0.214 6.54-0.0482 1.48-0.0964 2.96-0.145 4.44-0.118 3.62-0.237 7.25-0.355 10.9 0.765 0.29 1.53 0.58 2.32 0.878 3.22 1.35 5.7 3.16 8.49 5.25 0.976 0.724 1.95 1.45 2.96 2.2 0.736 0.554 1.47 1.11 2.23 1.68-1.32 3.8-2.92 6.35-5.62 9.31-0.632 0.697-1.26 1.39-1.91 2.11-0.482 0.519-0.964 1.04-1.46 1.57-2.96-0.613-4.38-1.25-7-3-1.07 1.78-1.07 1.78-1 3-0.00524 0.929-0.0105 1.86-0.0159 2.82-0.0172 3.34-0.0296 6.67-0.0391 10-5e-3 1.44-0.0118 2.87-0.0205 4.31-0.0454 7.69-0.00549 15.2 1.08 22.9 0.66-0.33 1.32-0.66 2-1 4.01-0.547 5.63-0.239 9.06 2 5.69 5.35 8.3 10.5 8.69 18.2 0.278 3.11 1.01 5.92 1.81 8.94 1.92 8.04 3.71 18.3-0.125 26-3.59 4.14-6.8 6.48-12.2 7.17-3.49 0.135-6.96 0.136-10.5 0.0961-1.34-0.00113-2.68-4.92e-4 -4.02 0.00177-3.62 0.00114-7.24-0.0223-10.9-0.0503-3.79-0.0251-7.58-0.0274-11.4-0.0321-7.17-0.0124-14.3-0.0452-21.5-0.0854-8.16-0.0448-16.3-0.0667-24.5-0.0868-16.1-0.04-32.2-0.106-48.3-0.19-1.7-0.00853-3.38-0.0072-5.08 0.0364-2.61 0.0628-5.22 0.101-7.83 0.14-0.899 0.0251-1.8 0.0503-2.72 0.0762-6.46 0.0711-10.8-0.784-15.8-5.2-6.24-10.5-5.11-21.7-2.31-33.1 2.12-7.89 4.82-14.9 10.5-21 0.717-0.837 0.717-0.837 1.45-1.69 2.57-2.17 5.34-1.49 8.55-1.31 1.1-3.56 1.13-6.88 1.13-10.6 0.00129-1.28 0.00258-2.55 0.00391-3.87-0.00209-0.662-0.00419-1.32-0.00635-2.01-0.00535-2.02-4.35e-5 -4.04 0.00635-6.06-0.00129-1.28-0.00258-2.55-0.00391-3.87-0.00113-1.17-0.00226-2.34-0.00342-3.54-0.109-2.58-0.471-4.59-1.13-7.05v-4c-2.48 0.99-2.48 0.99-5 2-1.13-1.1-2.25-2.21-3.38-3.31-0.626-0.615-1.25-1.23-1.9-1.86-2.97-3.14-3.73-4.4-3.73-8.82 2.16-1.75 2.16-1.75 5.06-3.44 0.999-0.602 2-1.2 3.03-1.82 1.44-0.86 1.44-0.86 2.91-1.74 5.09-3.05 5.09-3.05 8-8 1.83-1.53 1.83-1.53 4.18-3.14 0.845-0.577 1.69-1.15 2.56-1.75 0.889-0.595 1.78-1.19 2.69-1.8 0.885-0.607 1.77-1.21 2.68-1.84 6.61-4.47 6.61-4.47 8.88-4.47 0.108-1.13 0.108-1.13 0.219-2.28 1-3.49 2.27-4.25 5.28-6.22 0.897-0.594 1.79-1.19 2.72-1.8 3.25-1.98 6.55-3.78 9.97-5.46 1.94-1.1 1.94-1.1 2.66-3.11 2.24-4.14 6.7-6.35 10.5-8.94 0.864-0.61 1.73-1.22 2.62-1.85 1.25-0.858 1.25-0.858 2.53-1.73 0.762-0.524 1.52-1.05 2.31-1.59 2.17-1.02 2.17-1.02 4.18-0.841z" fill="#EAEFEE"/>
<path transform="translate(355 110)" d="m0 0c1.1 0.204 2.2 0.409 3.33 0.62 16.7 3.33 30.8 9.34 41.5 23.1 1.25 3.27 1.25 3.27 2 6h2c9.52 23.1 17.7 50.7 9.98 75.7-2.43 5.78-5.95 10.6-9.98 15.3-0.383 0.521-0.766 1.04-1.16 1.58-13.9 18-41.1 24.7-62.5 28-5.48 0.648-11 0.66-16.5 0.688-1.06 0.0206-2.12 0.0412-3.21 0.0625-7.29 0.0366-11.7-0.828-17.4-5.62-18.3-21.8-11.2-79.8-9.25-107 2.76-28.9 2.76-28.9 11-36 15.2-8.35 33.7-5.8 50.1-2.75z" fill="#F9FCFE"/>
<path transform="translate(656 109)" d="m0 0c0.898-0.00709 1.8-0.0142 2.72-0.0215 6.76 0.0639 13 0.813 18.1 5.65 9.17 15.3 7.92 36 7.94 53.3 0.00167 0.753 0.00334 1.51 0.00507 2.28 0.00282 21.4-0.73 44.7-7.63 65.1-0.4 1.21-0.799 2.43-1.21 3.68-2.17 5.28-5.1 9.69-9.41 13.4-7.69 2.56-16.4 2.18-23.7-1.2-5.72-2.94-10.8-6.2-15.3-10.8v-2c-0.594-0.241-1.19-0.482-1.8-0.73-2.64-1.52-3.73-3.05-5.39-5.58-0.509-0.759-1.02-1.52-1.54-2.3-1.32-2.49-1.86-4.61-2.27-7.39h-2c-0.454-1.07-0.908-2.14-1.38-3.25-2.12-4.92-4.33-9.48-7.62-13.8h-4c0.358 9.22 0.358 9.22 2.06 18.2 1.14 4.63 1.27 9.25 1.38 14 0.0342 0.781 0.0685 1.56 0.104 2.37 0.0319 4.18-0.152 5.88-2.78 9.29-9.28 7.03-22 9.03-33.3 7.63-5.25-1.18-8.55-4.14-11.4-8.54-3-9.78-2.31-20.6-2.25-30.8 0.0031-0.862 0.0062-1.72 0.0094-2.61 0.316-75 0.316-75 22.2-99.9 5.83-5.03 13.5-5.24 20.8-5 8.39 0.706 8.39 0.706 12.2 3.27 2.46 3.04 3.67 6.35 5 10 0.686 1.84 0.686 1.84 1.39 3.71 4.11 11.5 7.03 23.2 10 35 1.38 5.47 2.93 10.9 4.61 16.2 1.65 0.33 3.3 0.66 5 1-0.385-13.9-0.385-13.9-2.06-27.8-1.07-6.74-1.23-13.4-1.31-20.2-0.0388-1.63-0.0388-1.63-0.0784-3.3-0.0144-6 0.0202-10.2 4.45-14.7 5.81-4.25 11.5-4.59 18.5-4.44z" fill="#F9FCFE"/>
<path transform="translate(1299 109)" d="m0 0c1.19 0.00737 1.19 0.00737 2.4 0.0149 6.86 0.137 12.6 0.708 18 5.24 17 30.8 9.66 89.6 0.401 122-1.97 6.04-4.82 12-9.71 16.2-7 2.33-16.3 2.27-23.3-0.129-2.73-1.47-5.21-3.05-7.71-4.87-0.761-0.526-1.52-1.05-2.3-1.59-3.48-2.5-6.95-5.09-9.7-8.41v-3c-0.594-0.22-1.19-0.441-1.8-0.668-2.9-1.76-3.81-3.66-5.39-6.64-0.509-0.945-1.02-1.89-1.54-2.86-1.27-2.82-1.27-2.82-1.82-5.62-0.148-0.728-0.296-1.46-0.449-2.21-0.99-0.495-0.99-0.495-2-1-1.08-1.99-1.98-4.03-2.9-6.09-1.09-2.23-1.09-2.23-4.1-3.91-0.99 0.495-0.99 0.495-2 1-0.427 8.07 0.401 15.5 2.02 23.4 1.13 5.86 1.81 12.2-1.15 17.6-3.92 5.5-9.47 7.52-15.9 8.94-17.5 2.51-17.5 2.51-25-2-3.81-3.33-5.21-5.82-5.75-10.8-0.0541-1.14-0.0541-1.14-0.109-2.3-0.0214-2.03-0.0214-2.03-1.14-3.95-0.111-2.28-0.155-4.55-0.168-6.83-0.00423-0.695-0.00847-1.39-0.0128-2.11-0.00999-2.29-0.0099-4.58-0.0067-6.87 6.04e-4 -0.784 0.00121-1.57 0.00183-2.38 0.0478-22.9 1.35-45.4 6.19-67.8 0.336-1.71 0.336-1.71 0.68-3.46 2.53-11.7 7.61-26.7 17.4-34.1 7.68-4.6 16.7-4.77 25.3-2.91 5.03 1.87 7.72 5.59 9.96 10.3 3.06 8.18 5.55 16.4 7.79 24.9 3.69 15 3.69 15 9.06 29.4 0.344 0.745 0.688 1.49 1.04 2.26 0.254 0.534 0.508 1.07 0.77 1.62h2c0.177-9.53 0.337-18.9-1-28.4-0.93-6.78-1.25-13.5-1.31-20.3-0.0174-0.933-0.0348-1.87-0.0527-2.83 0.00441-6.06 0.623-10.7 5.12-15.2 5.79-3.22 11.6-3.61 18.1-3.56z" fill="#F9FCFE"/>
<path transform="translate(1029,124)" d="m0 0v2c1.98 0.495 1.98 0.495 4 1v3h2c0.495 1.49 0.495 1.49 1 3 0.677 0.625 0.677 0.625 1.37 1.26 2.38 2.53 3.41 5.36 4.76 8.55 0.518 1.2 1.04 2.41 1.57 3.64 3.49 9.49 3.99 22 0.305 31.5-4.47 8.41-11.3 15.4-18 22 1.22 3.65 2.04 3.87 5.31 5.69 20.7 12 20.7 12 26.2 20.7 0.785 4.12 0.888 7.62-0.5 11.6-4.76 6.18-12.1 10.2-19.7 11.5-2.77 0.286-5.52 0.442-8.3 0.539-0.81 0.0516-1.62 0.103-2.45 0.156-10 0.408-16.4-4.61-23.5-11.2-2.81-3.26-4.48-6-6-10-0.66-0.66-1.32-1.32-2-2-0.124-0.66-0.247-1.32-0.375-2-0.416-2.15-0.416-2.15-2.38-2.94-0.743-0.351-1.49-0.701-2.25-1.06-0.743-0.866-1.49-1.73-2.25-2.62-2.91-2.51-3.4-2.72-7-2.75-3.54-0.0457-3.54-0.0457-4.75 1.38 0.126 5.92 2.33 9.66 5.53 14.6 3.23 5.32 4.56 10.2 3.47 16.4-4.01 5.43-9.44 7.98-16 9-18.2 1.54-18.2 1.54-23.9-2.56-5.05-4.97-7.3-10.6-9.06-17.4-0.469-1.39-0.948-2.79-1.43-4.18-1.51-4.5-2.62-8.99-3.57-13.6-0.167-0.808-0.335-1.62-0.507-2.45-1.86-9.19-3.3-18.4-4.49-27.7-0.0972-0.703-0.194-1.41-0.294-2.13-0.989-8.18-0.927-16.4-0.946-24.6-0.00972-2.6-0.0408-5.21-0.0723-7.81-0.0952-15 1.51-29.1 12.3-40.4 22.1-18.8 71-4.03 92 10z" fill="#F9FCFE"/>
<path transform="translate(902 127)" d="m0 0c6.68 6.38 11.3 12.7 12 22.1-0.271 6.08-2.39 12.5-6.11 17.4h-2c-0.186 0.557-0.371 1.11-0.562 1.69-2.61 4.2-6.81 6.77-11.4 8.31-10.5 1.05-10.5 1.05-15.1-2.25-1.51-2.22-2.86-4.27-3.88-6.75h-2c-1.22-1.5-1.22-1.5-2.5-3.44-1.79-2.79-1.79-2.79-4.5-4.56-5.61-0.214-5.61-0.214-11 1-0.8 3.29-1.1 4.71 0 8 2.22 1.04 2.22 1.04 5 2 2.35 1.18 4.68 2.38 7 3.62 0.652 0.349 1.3 0.698 1.98 1.06 17.3 9.37 17.3 9.37 24 15.3v2c0.598 0.248 1.2 0.495 1.81 0.75 2.5 1.43 3.67 2.82 5.19 5.25v2c1.49 0.495 1.49 0.495 3 1 4.3 8.6 4.06 18.2 1.38 27.2-1.94 5.32-4.29 8.84-8.38 12.8h-2c-0.253 0.597-0.505 1.19-0.766 1.81-4.44 7.89-15.2 11.3-23.2 14.2-0.736 0.271-1.47 0.541-2.23 0.82-17.4 6.17-36.2 3.7-52.8-3.82-7.23-3.48-13.3-7.82-19.2-13.2-0.565-0.511-1.13-1.02-1.71-1.55-4.79-4.53-4.79-4.53-5.1-8.26h-2c-3-6.62-3-6.62-3-10h-2c-2-5.99-2.2-14 0.25-19.9 3.65-6.39 6.71-11.3 13.7-14.3 5.91-1.45 8.89-1.06 14.1 2.06 1.65 1.06 3.3 2.12 4.94 3.19 0.927 0.519 1.85 1.04 2.81 1.57 0.723 0.471 1.45 0.941 2.19 1.43v2c0.559 0.258 1.12 0.516 1.7 0.781 2.58 1.37 4.82 2.99 7.18 4.72 3.61 2.57 6.75 4.46 11.1 5.5 2.15-1.73 2.15-1.73 4-4-0.075-2.06-0.075-2.06-1-4-2.5-1.52-4.86-2.78-7.5-4-0.731-0.351-1.46-0.702-2.22-1.06-4.36-2.08-8.75-4.08-13.2-6-4.1-1.83-8.09-3.9-12.1-5.94-0.66-0.33-1.32-0.66-2-1v-2c-0.619-0.309-1.24-0.619-1.88-0.938l-4.12-2.06v-2c-1.49-0.495-1.49-0.495-3-1-5.26-4.03-8.4-10.5-9.49-16.9-0.462-10.4 2.99-18.6 9.73-26.3 8.31-9.03 16.2-14.5 27.8-18.8 0.821-0.311 1.64-0.621 2.49-0.941 23.5-8.42 55.7-0.55 74.7 15.5z" fill="#F9FCFE"/>
<path transform="translate(1433 104)" d="m0 0c1.83 0.131 1.83 0.131 3.69 0.264 8.93 0.671 8.93 0.671 11.2 1.8 2 0.247 4 0.472 6 0.688 12.3 1.7 24.5 5.67 35 12.3v3h2c5.4 12.2 4.06 26.3 0.266 38.8-2.22 5.67-4.73 9.73-10 12.9-9.21 1.06-16.2-2.87-23.9-7.44-6.07-3.47-11.4-4.19-18.3-4.19-3.35 14.1-0.761 26.2 5 39 0.88 2.1 1.75 4.21 2.62 6.31 0.4 0.946 0.799 1.89 1.21 2.87 4.9 11.9 9.69 25.3 4.48 37.9-1.83 3.5-3.89 5.8-7.31 7.88h-2v2c-1.75 0.648-3.5 1.29-5.25 1.94-1.46 0.539-1.46 0.539-2.95 1.09-11.2 3.88-25.5 3.56-36.4-0.832-7.35-3.65-13.5-8.72-16.8-16.4-2.54-15.5 2.74-28.7 8.2-43 6.67-17.4 6.67-17.4 4.8-35.4-1.23-3.43-1.23-3.43-3.62-4.38-7.8-0.823-14.8 0.394-22.2 2.58-6.07 1.73-11.4 2.46-17.3-0.0769-0.825-0.495-1.65-0.99-2.5-1.5v-2c-0.99-0.33-1.98-0.66-3-1-1.57-2.73-1.57-2.73-3.12-6.19-0.518-1.13-1.04-2.26-1.57-3.42-3.35-8.73-3.47-18.6-0.305-27.4 0.264-0.837 0.529-1.67 0.801-2.54 2.51-5.16 8.99-6.68 14.1-8.5 7.78-2.47 15.4-4.05 23.5-5.15 1.18-0.167 2.36-0.335 3.58-0.507 16.8-2.33 33.1-2.68 50.1-1.37z" fill="#F9FCFE"/>
<path transform="translate(485 105)" d="m0 0c1.16 0.00564 2.33 0.0113 3.53 0.0171 32.1 0.443 32.1 0.443 43.5 9.3 4.76 6.18 4.34 14.4 3.79 21.9-0.901 5.59-2.62 10.2-6.79 14.1-6.25 4.37-11.8 6.03-19.4 6.28-1.03 0.0374-2.05 0.0748-3.11 0.113-1.06 0.0348-2.12 0.0696-3.22 0.105-12.5-0.36-12.5-0.36-23.9 3.31-1.65 2.07-1.65 2.07-0.961 4.32 0.193 0.615 0.387 1.23 0.586 1.86 0.892-0.0209 1.78-0.0419 2.7-0.0635 3.35-0.0687 6.7-0.119 10-0.156 1.44-0.02 2.88-0.0471 4.33-0.082 16.6-0.39 16.6-0.39 22.9 4.3 3.78 5.27 3.2 12.3 2.52 18.5-1.13 5.55-3.07 8.97-7.52 12.5-6.43 2.14-12 2.1-18.8 1.62-1.85-0.113-3.7-0.225-5.55-0.336-0.808-0.0546-1.62-0.109-2.45-0.166-2.08-0.114-4.17-0.124-6.25-0.124-0.33 1.65-0.66 3.3-1 5 8.49 5.78 16.2 4.01 25.9 2.72 17.5-2.24 17.5-2.24 25.1 2.28 2.69 2.44 2.69 2.44 5 5 0.763 0.701 1.53 1.4 2.31 2.12 1.69 1.88 1.69 1.88 1.69 4.88h2c2.85 7 4.73 14.5 3 22-3.9 4.12-7.78 6.07-13.2 7.56-0.718 0.202-1.44 0.404-2.18 0.612-25.8 6.83-58.7 11.1-83.4-1.82-8.53-5.41-8.53-5.41-9.82-9.54-0.106-0.599-0.211-1.2-0.32-1.82h-2c-3.89-11.2-3.42-22.4-3.36-34.1 5.2e-4 -2.14-2e-6 -4.27-0.00151-6.41 8.93e-5 -4.46 0.0104-8.91 0.0286-13.4 0.0227-5.7 0.0232-11.4 0.0165-17.1-0.00335-4.4 0.00331-8.81 0.0131-13.2 0.00383-2.1 0.00501-4.2 0.00341-6.3-3.73e-4 -2.94 0.0123-5.88 0.0285-8.81-0.00248-0.856-0.00495-1.71-0.00751-2.59 0.0749-8.58 1.38-16 6.28-23.1 3.99-3.8 7.82-5.2 13-6.62 0.679-0.204 1.36-0.407 2.06-0.617 10.8-3.1 21.7-4.13 32.9-4.07z" fill="#F9FCFE"/>
<path transform="translate(1156 106)" d="m0 0c0.915 0.196 1.83 0.392 2.77 0.594 6.88 1.66 14.1 4.05 18.6 9.78 3.38 8.25 3.23 18.3-0.0312 26.6-2.85 5.46-8.48 9.28-14 11.9-4.47 0.892-8.89 1.24-13.4 1.5-1.42 0.0833-2.84 0.167-4.26 0.25-2.22 0.126-4.43 0.251-6.65 0.375-2.15 0.122-4.31 0.248-6.46 0.375-1.92 0.108-1.92 0.108-3.88 0.219-2.58 0.22-4.83 0.535-7.3 1.28v6c3.67 2.33 6.72 2.19 11 2.09 1.38-0.0204 2.75-0.0406 4.13-0.0605 2.16-0.0435 4.31-0.0919 6.47-0.146 2.09-0.0485 4.18-0.0782 6.27-0.106 1.25-0.0284 2.49-0.0569 3.78-0.0862 4.54 0.418 7.12 1.91 10.1 5.31 3.24 5.18 2.68 11.1 2.25 17-1.08 4.19-3.16 7.74-6 11-6.72 3.4-13.6 3.25-20.9 2.62-1.84-0.138-3.68-0.271-5.53-0.398-0.8-0.0662-1.6-0.132-2.43-0.201-2.3-0.144-2.3-0.144-5.11 0.974-0.33 1.98-0.66 3.96-1 6 7.81 3.2 15.2 2.02 23.4 1 20.6-2.55 20.6-2.55 27.6 2 4.56 4.13 8.21 7.72 9 14h2c0.535 2.21 1.05 4.41 1.56 6.62l0.879 3.73c0.56 3.66 0.582 6.1-0.441 9.65-8.39 10.9-29 11.5-41.4 13.2-13.3 1.67-26.4 1.46-39.6-1.24-1.66-0.292-1.66-0.292-3.36-0.59-7.43-1.45-12.7-3.68-18.6-8.41-0.66-0.487-1.32-0.975-2-1.48-4.19-3.27-6.32-6.42-8-11.5-0.311-2.64-0.487-5.05-0.512-7.69-0.0181-0.754-0.0362-1.51-0.0548-2.29-0.0556-2.53-0.089-5.06-0.121-7.59-0.0318-1.81-0.0642-3.61-0.0969-5.42-0.105-6.34-0.163-12.7-0.216-19-0.011-1.27-0.0219-2.55-0.0332-3.86-0.0755-9.04-0.121-18.1-0.147-27.1-0.00714-2.08-0.0175-4.16-0.0285-6.24-0.0199-3.94-0.0218-7.88-0.0216-11.8-0.00713-1.18-0.0143-2.35-0.0216-3.57 0.0258-9.43 0.499-19.2 7.25-26.4 8.92-6.2 20-8.01 30.6-9.57 14.5-2.57 29.4-2.44 44.1 0.758z" fill="#F9FCFE"/>
<path transform="translate(1511,116)" d="m0 0c4 0 4 0 7 1v4c0.66-0.66 1.32-1.32 2-2h3c6.06 17 3.52 37.8-3.92 54-5.36 10.6-11.3 19.9-22.8 24.4-1.29 0.422-2.58 0.835-3.87 1.24-0.646 0.212-1.29 0.424-1.96 0.643-3.46 1.12-6.89 2.04-10.5 2.67 0.33 0.99 0.66 1.98 1 3 0.149 1.35 0.272 2.71 0.375 4.06 0.336 3.4 1.02 6.34 2.13 9.57 1.68 5.47 2.03 10.6 1.99 16.2-5e-3 0.964-0.00999 1.93-0.0151 2.92-0.186 7.61-1.53 13.6-5.48 20.2-0.446 0.791-0.892 1.58-1.35 2.4-8.88 14.5-22.3 22.6-38.6 26.6-21.3 5.02-43.3 2.46-62.2-8.82-10.4-6.7-16.4-15.2-21.8-26.2-0.538-1.07-0.538-1.07-1.09-2.16-0.302-0.607-0.603-1.21-0.914-1.84-0.369-0.572-0.737-1.14-1.12-1.73-1.34-3.44-1.09-6.88-1.01-10.5 0.00902-0.745 0.018-1.49 0.0273-2.26 0.0235-1.83 0.0593-3.66 0.0977-5.49-1.43 3.33-2.36 6.44-3 10-2.99 13.1-9.37 24.7-20 33-14 8.58-28.3 10.5-44.1 7.02-6.75-1.67-13.3-4.14-18.9-8.27-2.93-1.09-2.93-1.09-5.35 0.488-1.9 1.25-3.79 2.53-5.66 3.84-10.6 6.99-23.9 8.31-36.3 8.3-1.5 8.46e-4 -1.5 8.46e-4 -3.02 0.00171-17.5-0.26-17.5-0.26-22.6-5.38-6.36 0.534-12.4 1.95-18.6 3.44-33.8 7.81-72.6 10-103-8.44l-2.64-2.28c-2.15-1.95-2.15-1.95-4.36-1.6-0.66 0.289-1.32 0.578-2 0.875-0.77 0.307-1.54 0.614-2.33 0.93-0.88 0.353-1.76 0.706-2.67 1.07-2.22 0.729-4.45 1.44-6.69 2.12-1.06 0.333-2.11 0.665-3.2 1.01-12.9 3.59-28.1 3.62-40.5-1.36-4.28-1.28-6.78-0.175-10.7 1.75-1.7 0.917-1.7 0.917-3.43 1.85-6.3 3.28-12.4 5.31-19.4 6.62-1.16 0.227-2.31 0.454-3.5 0.688-16.1 1.44-31.4-1.22-44.2-11.6-3.36-3.03-5.83-6.31-8.25-10.1v-2c-0.487 0.401-0.975 0.802-1.48 1.21-24.3 19.5-51.9 28.3-83.1 25-14.6-1.88-34.7-7.46-45.4-18.2-3.22 0.349-5.01 1.63-7.44 3.69-15.6 11.9-36.4 15.1-55.6 13.3-11.2-1.56-23-5.23-31.4-12.9-2.32-2.28-2.32-2.28-4.94-2.19-2.34 1-4.19 2.11-6.31 3.5-10.9 7.06-24.4 7.66-37 5.43-6.83-1.63-14.1-3.61-19.9-7.52-2.3-1.47-2.3-1.47-4.75-1.21-2.84 0.994-5.43 2.28-8.07 3.71-15.4 8.32-34.5 11.6-51.7 7.35-2.09-0.658-4.17-1.37-6.22-2.16-5.6-2.08-9.31-2.07-15-0.285-33 9.56-74.4 12.5-106-3.56-6.35-3.84-12.9-8.53-17.8-14.1v-2c-0.958 0.629-1.92 1.26-2.9 1.91-30.5 19.7-70.8 32.4-107 25-13-3.65-23-11.2-29.8-22.9-1.55-3.61-2.85-7.25-4-11h-2c-4.39-24-6.17-47.9-6.19-72.2-0.00109-0.715-0.00218-1.43-0.0033-2.17 0.00137-7.91 0.192-15.8 0.64-23.7 0.0385-0.687 0.077-1.37 0.117-2.08 0.269-4.32 0.773-8.54 1.43-12.8 0.66 0.33 1.32 0.66 2 1 0.391 2.06 0.507 4.09 0.656 6.19 0.113 0.598 0.227 1.2 0.344 1.81 0.66 0.33 1.32 0.66 2 1v-7h1c2.5 9.77 2.35 19.7 2.46 29.7 0.0634 5.15 0.167 10.3 0.272 15.5 0.0206 1.02 0.0413 2.05 0.0626 3.1-0.807 43.2-0.807 43.2 16.2 81 11.8 10.3 28.3 10.6 43.1 9.61 28.1-2.52 54.8-9.45 76.7-28.2 2.16-1.59 3.6-2.22 6.23-2.64 0.496 0.652 0.993 1.3 1.5 1.98 4.1 5.28 8.07 10.1 13.5 14 0.681 0.501 1.36 1 2.06 1.52 15.1 10.1 34.9 11.9 52.6 11.9 0.716-2.11e-4 1.43-4.23e-4 2.17-6.41e-4 18.2-0.0532 35.8-2.35 53-8.32 7.16-2.42 7.16-2.42 10.5-1.12 0.798 0.458 1.6 0.915 2.42 1.39 6.96 3.96 13.7 5.04 21.6 4.94 0.745-0.00677 1.49-0.0135 2.26-0.0205 14.5-0.272 27.1-4.84 38.5-13.9 1.89-1.32 1.89-1.32 4.14-1.32 3.2 1.16 5.74 2.82 8.59 4.66 11.5 7.08 24.7 9.05 38 6.87 5.35-1.39 9.25-3.69 13.5-7.23 1.69-1.3 1.69-1.3 4.69-2.3 0.733-2.02 0.733-2.02 1-4 1.32-0.33 2.64-0.66 4-1 0.839 1.12 1.67 2.25 2.5 3.38 0.464 0.626 0.928 1.25 1.41 1.9 1.09 1.73 1.09 1.73 1.09 3.73 0.808 0.389 0.808 0.389 1.63 0.785 1.73 0.889 3.43 1.84 5.11 2.84 16.5 9.56 34.7 10.5 53.1 6.03 9.51-2.84 19-7.61 24.7-15.9 1.78-2.16 2.68-2.43 5.44-2.75 1.92 0.926 1.92 0.926 3.75 2.31l1.86 1.36c0.459 0.437 0.918 0.874 1.39 1.32v2c0.562 0.11 1.12 0.219 1.7 0.332 2.65 0.771 4.67 1.95 7.05 3.36 20.3 11.2 45.3 15.5 68 9.62 19.4-5.71 35.2-15 47.2-31.3 3.1 1.05 3.92 1.85 5.49 4.79l1.38 3.39c5.19 11.6 11.6 15.9 23.1 20.8 4.53 1.36 8.99 1.18 13.7 1.19 0.86 0.0122 1.72 0.0245 2.61 0.0371 7.86 0.0178 14.9-1.22 22.1-4.35 4.37-1.88 4.37-1.88 6.56-1.88v-2c0.928-0.433 1.86-0.866 2.81-1.31 2.66-1.41 4.27-2.45 6.19-4.69 3.05 0.943 5.82 1.9 8.62 3.44 8.45 3.91 16.2 5.14 25.4 3.56 1.11-0.124 2.23-0.248 3.38-0.375 10.5-1.81 18.8-4.72 27.6-10.6 1.05 0.748 2.1 1.5 3.18 2.27 19.1 13.5 37 18 60.4 18 1.1 0.00101 1.1 0.00101 2.22 0.00204 17.6-0.0257 34.1-1.77 50.9-7.26 3.24-0.988 3.24-0.988 6.24-0.988v-2c5.35 0.433 9.57 2.53 14.3 4.84 13.6 5.86 31.4 2.14 44.7-3.01 4.1-1.89 7.22-3.84 10.3-7.14 2.69-2.69 2.69-2.69 5.19-3.38 2.5 0.688 2.5 0.688 5.19 3.03 3.33 2.85 6.74 4.38 10.8 5.91 0.638 0.255 1.28 0.51 1.93 0.773 11.2 4.34 25 5 36.2 0.332 3.38-1.9 6.1-4.25 8.85-6.96 1.56-1.39 1.56-1.39 3.56-1.39 0.422-1.1 0.422-1.1 0.852-2.22 1.05-2.53 2.23-4.87 3.52-7.28 8.19-16.3 10.1-34.7 11.9-52.6 0.224-2.26 0.465-4.51 0.708-6.77 0.0939-1.03 0.0939-1.03 0.19-2.09 0.213-1.93 0.213-1.93 0.873-5.05 3.27-2.18 4.22-2.25 8-2.23 1.45 0.0029 1.45 0.0029 2.94 0.00586 1.01 0.0122 2.02 0.0245 3.06 0.0371 1.01 6.45e-4 2.02 0.00129 3.06 0.00195 7.52 0.045 7.52 0.045 10.9 1.19-1.43 8.69-4.19 16.5-7.5 24.7-6.14 16.4-7.56 30.6-0.297 47 6.83 13 19.4 19.7 32.9 24 12.1 3.36 24.7 3.08 36.9 0.25 0.821-0.183 1.64-0.366 2.49-0.555 9.17-2.37 18.3-7.15 24.5-14.4 0.846-0.908 1.69-1.82 2.56-2.75 8.3-10.1 8.2-22.8 7.44-35.2-1.4-10.2-3.73-21.7-10-30-0.188-2.75-0.188-2.75 0-5 2.73-1.36 4.11-0.664 7.06 0 8.04 1.54 15.6 0.919 22.9-3 11.8-8.01 16.6-21.4 19.6-34.8 1.55-13.1 1.02-26.5-2.62-39.2zm-154 77c-2.6 3.9-2.15 7.47-2 12 2.81-1.4 2.92-3.11 4-6 0.371-0.722 0.743-1.44 1.12-2.19 1.02-1.78 1.02-1.78 0.875-3.81h-4zm-1 12 1 2zm-1 3 1 2zm-1089 16 1 3zm1 9 1 2zm1 6 1 2zm1085 3 1 2zm-1084 2 1 2z" fill="#F9FCFD"/>
<path transform="translate(741,109)" d="m0 0c4.68 7.67 6.58 16.4 8.44 25.1 0.297 1.35 0.593 2.7 0.89 4.05 7.06 32.6 14.3 66.8 15 100 0.0261 0.692 0.0522 1.38 0.0791 2.1 0.0173 5.02-1.21 7.87-4.45 11.7-2.52 1.61-2.52 1.61-5.25 2.75-0.892 0.387-1.78 0.773-2.7 1.17-6.93 2.45-13.1 3.47-20.4 3.45-1.25-0.00242-1.25-0.00242-2.53-0.00488-6.36-0.127-11.6-1.07-17.1-4.37-0.969-0.557-1.94-1.11-2.94-1.69-7.15-8.02-7.35-22.6-8.12-32.8-0.078-0.94-0.156-1.88-0.236-2.85-0.258-3.24-0.484-6.47-0.701-9.71-0.0445-0.64-0.089-1.28-0.135-1.94-0.958-14.1-1.05-28.2-1.05-42.4-0.0022-3.86-0.0205-7.71-0.0393-11.6-0.0893-35.4-0.0893-35.4 7.22-43.1 8.5-5 25.7-5.45 34 0z" fill="#F9FCFE"/>
<path transform="translate(166,121)" d="m0 0c5.05 2.08 9.35 4.93 13 9 0.99 0.66 1.98 1.32 3 2v2c1.32 0.33 2.64 0.66 4 1v2h3c0.309 0.866 0.309 0.866 0.625 1.75 1.5 2.45 3.05 3.49 5.46 4.98 3.33 2.21 6.36 4.83 9.45 7.37 2.4 1.85 4.87 3.35 7.46 4.9 2.81 2.56 2.81 2.56 5 5v2c0.928 0.371 0.928 0.371 1.88 0.75 2.53 1.49 2.93 2.63 4.12 5.25 0.99 0.99 1.98 1.98 3 3v10h-58v50c8.04 0.0619 16.1 0.124 24.4 0.188 2.54 0.0273 5.08 0.0546 7.7 0.0828 2 0.00876 4.01 0.0164 6.01 0.0227 1.05 0.0153 2.1 0.0307 3.18 0.0465 0.995 3.63e-4 1.99 7.25e-4 3.01 0.0011 0.866 0.00666 1.73 0.0133 2.62 0.0202 0.693-0.119 1.39-0.238 2.1-0.361 0.99-1.49 0.99-1.49 2-3 0.33 0.66 0.66 1.32 1 2 0.66-0.33 1.32-0.66 2-1 0.33 0.66 0.66 1.32 1 2 0.66-0.33 1.32-0.66 2-1 1.06 1.88 1.06 1.88 2 4-0.33 0.66-0.66 1.32-1 2h2v10c-3.41 1.14-5.99 1.12-9.58 1.11-0.664 1.46e-4 -1.33 2.92e-4 -2.01 4.43e-4 -2.19-6.96e-4 -4.38-0.00847-6.57-0.0163-1.52-0.00187-3.04-0.00329-4.56-0.00429-4-0.00382-8-0.0136-12-0.0247-4.08-0.0102-8.16-0.0148-12.2-0.0198-8.01-0.0107-16-0.0278-24-0.0488-0.854-3.69-1.12-7.08-1.1-10.9 0.0033-1.15 0.00661-2.31 0.01-3.5 0.0083-1.24 0.0166-2.47 0.0251-3.75 0.00379-1.28 0.00757-2.55 0.0115-3.87 0.0122-4.07 0.0307-8.14 0.051-12.2 0.0268-5.37 0.0465-10.7 0.0625-16.1 0.0083-1.24 0.0166-2.49 0.0251-3.77 0.0033-1.14 0.00661-2.29 0.01-3.47 0.00524-1.01 0.0105-2.02 0.0159-3.06 0.0487-2.42 0.0487-2.42-1.11-4.41h-43c-0.33 21.1-0.66 42.2-1 64-10-1-10-1-12-2-0.0696-9.17-0.123-18.3-0.155-27.5-0.0156-4.26-0.0369-8.52-0.0709-12.8-0.0326-4.11-0.0505-8.22-0.0583-12.3-0.00554-1.57-0.0163-3.13-0.0326-4.7-0.0218-2.2-0.0248-4.39-0.0234-6.59-0.00666-1.25-0.0133-2.5-0.0202-3.79 0.39-3.56 1.17-5.48 3.36-8.3h2c0.0413-0.619 0.0825-1.24 0.125-1.88 0.433-1.05 0.433-1.05 0.875-2.12 3.06-1.25 3.06-1.25 6-2v-3c5.65-5.38 12.1-9.94 18.3-14.7 1.72-1.32 3.44-2.65 5.15-3.99 5.44-4.24 10.9-8.29 16.7-12 2.59-1.82 4.7-4.01 6.87-6.31 3.28-2.19 4.2-2.39 8-2z" fill="#FAFCFE"/>
<path transform="translate(549,88)" d="m0 0c0.66 0.66 1.32 1.32 2 2 1.99 1.35 3.99 2.69 6 4v-2c11.2-9.62 22.7-13.2 37.1-13.2 0.982-0.0206 1.96-0.0413 2.98-0.0625 8.01-0.0422 15.2 1.32 22.6 4.43 4.42 1.67 8.22-0.383 12.4-2.05 15.4-5.66 33.4-6.16 48.7 0.0625 1.48 0.709 2.96 1.42 4.44 2.14 2.64 1.08 4.17 0.79 6.79-0.27 0.834-0.469 1.67-0.938 2.53-1.42 4.37-1.98 8.66-2.86 13.3-3.77 0.879-0.177 1.76-0.354 2.66-0.537 2.15-0.433 4.31-0.858 6.46-1.28v1c1.21 0.186 1.21 0.186 2.44 0.375 0.846 0.206 1.69 0.412 2.56 0.625 0.33 0.66 0.66 1.32 1 2 2.28 0.257 4.58 0.406 6.88 0.5 6.79 0.279 6.79 0.279 10.1 2.5h-17c-0.33 0.99-0.66 1.98-1 3-2.83 0.735-5.57 1.31-8.44 1.81-8.91 1.76-16.2 4.45-22.6 11.2-4.29-1.33-8.15-2.99-12.1-5.06-11.3-5.88-27.2-6.16-39.5-2.93-5.07 1.79-9.1 3.77-13.4 6.99-2.5 0.375-2.5 0.375-5 0-0.608-0.458-1.22-0.915-1.84-1.39-9.49-7.1-22.9-6.83-34.2-5.61-4.21 0.963-8.03 2.33-12 4-1.11 0.218-1.11 0.218-2.25 0.441-0.866 0.277-0.866 0.277-1.75 0.559-0.33 0.99-0.66 1.98-1 3-0.639 0.144-1.28 0.289-1.94 0.438-2.27 0.364-2.27 0.364-3.31 2.62-0.371 0.959-0.371 0.959-0.75 1.94h-2c-0.289 0.598-0.577 1.2-0.875 1.81-1.12 2.19-1.12 2.19-3.12 5.19-2.58-0.366-3.7-0.62-5.34-2.71-0.382-0.695-0.763-1.39-1.16-2.11-4.81-8.66-13.5-13-22.7-15.9-28.5-7.78-68.6-8.86-95.2 6.05-1.29 0.809-2.56 1.64-3.82 2.49-1.75 1.15-1.75 1.15-3.85 1.98-2.64 1.61-2.9 3.27-3.9 6.16-1.02 1.95-2.06 3.89-3.12 5.81-0.539 0.976-1.08 1.95-1.63 2.96-0.41 0.736-0.82 1.47-1.24 2.23-4.85-2.57-8.1-5.1-12-9-10.3-8.13-21-12.4-33.8-15.2-1.72-0.381-1.72-0.381-3.48-0.77-21.4-4.64-47-9.02-66.8 2.68-2.01 1.29-2.01 1.29-4.06 2.94-1.88 1.34-1.88 1.34-3.88 1.34-0.271 0.568-0.541 1.14-0.82 1.72-1.22 2.35-2.61 4.5-4.05 6.71-9.31 15.7-10.1 35.7-11.1 53.6h-1c-0.147-1.26-0.147-1.26-0.297-2.55l-0.453-3.32-0.422-3.3c-0.513-2.95-0.513-2.95-2.86-3.98-0.975-0.416-0.975-0.416-1.97-0.84-0.59-2.8-0.891-5.17-1-8-0.0491-1.03-0.0491-1.03-0.0991-2.07-0.133-5.71 0.712-10.7 2.22-16.2l0.685-2.51c4.14-14.5 11.9-27.3 25.2-35.2 22.9-11.3 49.7-8.42 74-3 0.842 0.187 1.68 0.374 2.55 0.567 14.8 3.42 27.3 9.22 39.4 18.4 0.959-0.99 0.959-0.99 1.94-2 1.02-1 2.04-2 3.06-3 0.655-0.639 1.31-1.28 1.98-1.94 9.85-9.22 21.1-12.9 34-16.1 0.675-0.168 1.35-0.336 2.05-0.509 29.1-6.82 70.9-6.45 96 11.5z" fill="#E0E3E5"/>
<path transform="translate(1507,93)" d="m0 0c1.02 0.974 2.03 1.97 3 3 0.536 0.495 1.07 0.99 1.62 1.5 1.38 1.5 1.38 1.5 2.38 4.5h2c0.103 0.743 0.206 1.48 0.312 2.25 0.487 2.75 0.487 2.75 2.12 4.56 2.31 3.24 2.81 6.28 3.56 10.2-0.33 0.66-0.66 1.32-1 2h-3c-0.124-0.639-0.247-1.28-0.375-1.94-0.206-0.681-0.412-1.36-0.625-2.06-0.66-0.33-1.32-0.66-2-1-0.33 0.99-0.66 1.98-1 3-2.95-2.71-5.17-5.08-7.06-8.62-1.82-3.16-3.01-4.39-5.94-6.38v-2c-0.691-0.271-1.38-0.541-2.09-0.82-3.17-1.29-6.28-2.67-9.41-4.05-26.1-11.2-54.5-13.7-82.6-12.9-1.26 0.0383-2.51 0.0765-3.8 0.116-12 0.483-23.8 1.92-35.5 4.45-0.79 0.17-1.58 0.339-2.39 0.514-11.2 2.49-22.4 5.32-32.2 11.7v-2c-0.562-0.278-1.12-0.557-1.7-0.844-1.54-0.775-3.07-1.57-4.59-2.38-0.81-0.423-1.62-0.846-2.45-1.28-1.2-0.634-1.2-0.634-2.42-1.28-7.48-3.22-14.5-3.61-22.6-3.59-1.06 0.00161-2.13 0.00322-3.23 0.00488-9.15 0.143-16.8 1.25-24.5 6.68-2.56 1.69-2.56 1.69-4.85 1.45-4.1-1.15-7.89-2.9-11.8-4.61-13.4-5.29-28.1-2.57-40.9 2.84h-2c-0.495 1.48-0.495 1.48-1 3-0.593 0.286-1.19 0.572-1.8 0.867-2.98 1.53-4.42 3.62-6.45 6.26-1.06 1.37-1.06 1.37-2.14 2.76-0.531 0.699-1.06 1.4-1.61 2.12-2.42-0.797-2.42-0.797-5-2-0.688-1.7-1.37-3.41-2.02-5.13-4.23-8.05-16-11.6-24-14.3-19.9-5.86-41.4-4.54-61.9-4.61v-2c-0.99-0.33-1.98-0.66-3-1 2.64-0.33 5.28-0.66 8-1v-2h-9v-2c26.3-3.9 66.3-6.39 89 10 2.46 1.91 4.72 3.87 7 6 2.85-1.32 5.14-2.83 7.56-4.81 13.3-10.2 29.5-10.9 45.6-8.92 4.16 0.749 8.15 1.76 11.8 3.9 4.13 1.72 8.15-0.534 12.1-2.1 16.3-6 35-6.08 51 1 0.651 0.321 1.3 0.642 1.97 0.973 0.648 0.318 1.3 0.637 1.96 0.965 1.06 0.652 1.06 0.652 2.14 1.32 4.58 1.1 8.18-0.816 12.5-2.44 47.1-16.6 120-20.3 162 10.1zm-398-16c1.48 0.99 1.48 0.99 3 2 1.32-0.66 2.64-1.32 4-2h-7z" fill="#E0E3E4"/>
<path transform="translate(164 92.2)" d="m0 0c4.02 1.67 7.51 4.23 11.1 6.64 0.824 0.534 1.65 1.07 2.5 1.62 0.788 0.524 1.58 1.05 2.39 1.59 1.08 0.713 1.08 0.713 2.18 1.44 2.01 1.71 2.67 3.2 3.82 5.54 1.52 1.29 1.52 1.29 3.34 2.25 0.652 0.38 1.3 0.759 1.98 1.15 0.681 0.382 1.36 0.764 2.06 1.16 11.4 6.51 11.4 6.51 14.6 12.4 0.33 0.33 0.66 0.66 1 1 0.716-7.23 1.06-13.8 0-21 0.33-0.99 0.66-1.98 1-3 2.77-0.922 4.38-1.12 7.23-1.1 1.2 0.00483 1.2 0.00483 2.43 0.00977 0.833 0.00838 1.67 0.0168 2.53 0.0254 0.845 0.00451 1.69 0.00902 2.56 0.0137 2.08 0.0118 4.17 0.0297 6.25 0.0488 0 6.36-0.011 12.7-0.219 19.1-0.0222 0.684-0.0444 1.37-0.0673 2.07-0.0709 2.18-0.142 4.36-0.214 6.54-0.0482 1.48-0.0964 2.96-0.145 4.44-0.118 3.62-0.237 7.25-0.355 10.9 0.765 0.29 1.53 0.58 2.32 0.878 3.22 1.35 5.7 3.16 8.49 5.25 0.976 0.724 1.95 1.45 2.96 2.2 0.736 0.554 1.47 1.11 2.23 1.68-1.32 3.8-2.92 6.35-5.62 9.31-0.632 0.697-1.26 1.39-1.91 2.11-0.482 0.519-0.964 1.04-1.46 1.57-2.96-0.613-4.38-1.25-7-3-0.33 0.66-0.66 1.32-1 2-2.04-1.62-4.04-3.29-6-5v-2c-0.681-0.227-1.36-0.454-2.06-0.688-5.97-2.67-10.4-6.66-14.9-11.3-1.86-1.58-3.74-3.13-5.64-4.67-0.447-0.44-0.895-0.879-1.36-1.33v-2c-0.708-0.235-1.42-0.469-2.14-0.711-3.39-1.53-5.73-3.49-8.54-5.91-1.06-0.903-2.12-1.81-3.18-2.71-0.525-0.449-1.05-0.899-1.59-1.36-3.06-2.59-6.22-5.07-9.38-7.54-2.17-1.77-2.17-1.77-3.8-3.41-2.01-2-3.66-3.28-6.52-3.61-6.92 0.38-10 3.33-14.7 8.17-2.22 2.17-4.53 4.13-6.95 6.08-0.956 0.777-1.91 1.55-2.9 2.36-2.39 1.93-4.8 3.85-7.2 5.76-0.667 0.53-1.33 1.06-2.02 1.61-1.31 1.04-2.62 2.08-3.94 3.12-3.24 2.57-6.25 5.18-9.13 8.16-1.17 1.08-2.36 2.14-3.56 3.19-0.579 0.509-1.16 1.02-1.75 1.54-1.68 1.27-1.68 1.27-4.68 2.27-1.69 1.64-3.35 3.31-5 5-4.65 4-4.65 4-7 4-1.68 0.639-3.35 1.3-5 2-1.13-1.1-2.25-2.21-3.38-3.31-0.626-0.615-1.25-1.23-1.9-1.86-2.97-3.14-3.73-4.4-3.73-8.82 2.16-1.75 2.16-1.75 5.06-3.44 0.999-0.602 2-1.2 3.03-1.82 0.96-0.574 1.92-1.15 2.91-1.74 5.09-3.05 5.09-3.05 8-8 1.83-1.53 1.83-1.53 4.18-3.14 0.845-0.577 1.69-1.15 2.56-1.75 0.889-0.595 1.78-1.19 2.69-1.8 0.885-0.607 1.77-1.21 2.68-1.84 6.61-4.47 6.61-4.47 8.88-4.47 0.108-1.13 0.108-1.13 0.219-2.28 1-3.49 2.27-4.25 5.28-6.22 0.897-0.594 1.79-1.19 2.72-1.8 3.25-1.98 6.55-3.78 9.97-5.46 1.94-1.1 1.94-1.1 2.66-3.11 2.24-4.14 6.7-6.35 10.5-8.94 0.864-0.61 1.73-1.22 2.62-1.85 1.25-0.858 1.25-0.858 2.53-1.73 0.762-0.524 1.52-1.05 2.31-1.59 2.17-1.02 2.17-1.02 4.18-0.841z" fill="#7D4519"/>
<path transform="translate(124 182)" d="m0 0c0.879-0.0057 1.76-0.0114 2.66-0.0173 1.86-0.00944 3.71-0.016 5.57-0.0198 2.85-0.00974 5.7-0.0408 8.55-0.0723 1.8-0.00653 3.61-0.0118 5.41-0.0156 0.855-0.0123 1.71-0.0247 2.59-0.0374 2.4 0.00909 2.4 0.00909 6.25 0.366 2.44 3.67 2.24 5.39 2.21 9.76-0.00131 0.683-0.00263 1.37-0.00398 2.07-0.00649 2.26-0.0269 4.52-0.047 6.78-0.00627 1.57-0.0115 3.15-0.0158 4.72-0.0133 4.15-0.0377 8.29-0.0654 12.4-0.0431 6.62-0.0729 13.2-0.096 19.9-0.0102 2.31-0.0272 4.62-0.045 6.93-0.00683 1.43-0.0134 2.85-0.0198 4.28-0.0124 1.86-0.0124 1.86-0.025 3.75 0.127 6.72 0.127 6.72 3.67 12.1 0.804 0.742 1.61 1.49 2.44 2.25v2h-57c1.98-5.94 1.98-5.94 4-12 0.586-4.09 0.586-4.09 0.53-7.94 0.00873-0.701 0.0175-1.4 0.0265-2.12 0.0239-2.26 0.021-4.52 0.0177-6.79 0.0125-1.59 0.0268-3.18 0.0429-4.78 0.0377-4.15 0.0532-8.3 0.0628-12.5 0.0199-6.68 0.0765-13.4 0.129-20 0.0153-2.33 0.0225-4.66 0.0281-6.98 0.00701-1.42 0.0141-2.83 0.0213-4.25 0.00522-1.86 0.00522-1.86 0.0105-3.75 0.131-2.89 0.131-2.89 1.13-4.89 3.98-1.33 7.82-1.18 12-1.2z" fill="#80461A"/>
<path transform="translate(195 181)" d="m0 0c2.48-0.00986 4.95-0.041 7.43-0.0723 1.58-0.00652 3.16-0.0118 4.74-0.0156 0.737-0.0123 1.47-0.0247 2.23-0.0374 5.03 0.0221 5.03 0.0221 7.53 1.69 1.66 2.73 1.01 5.13 0.641 8.23-0.725 4.37-0.725 4.37 0.375 8.44 0.0986 2.47 0.14 4.91 0.133 7.38 9.57e-4 0.727 0.00191 1.45 0.0029 2.2 6.81e-4 1.54-0.00117 3.07-0.00534 4.61-0.00536 2.36-4.73e-5 4.72 0.00635 7.08-6.61e-4 1.49-0.00194 2.98-0.00391 4.47 0.00202 0.71 0.00405 1.42 0.00613 2.15-0.024 4.98-0.024 4.98-1.14 6.09-1.43 0.0981-2.86 0.128-4.29 0.129-0.911 0.00315-1.82 0.0063-2.76 0.00955-0.992-0.00202-1.98-0.00405-3-0.00613-1.01 9.57e-4 -2.02 0.00191-3.07 0.0029-2.15 6.82e-4 -4.29-0.00117-6.44-0.00534-3.29-0.00534-6.58-6.16e-5 -9.87 0.00635-2.08-6.61e-4 -4.16-0.00194-6.25-0.00391-0.988 0.00202-1.98 0.00405-2.99 0.00613-1.38-0.00473-1.38-0.00473-2.78-0.00955-0.808-7.96e-4 -1.62-0.00159-2.45-0.00241-2.1-0.127-2.1-0.127-5.1-1.13-1.03-2.73-1.13-5.35-1.13-8.25-0.00315-0.828-0.0063-1.66-0.00955-2.51 0.00202-0.886 0.00405-1.77 0.00613-2.68-9.57e-4 -0.917-0.00191-1.83-0.0029-2.78-6.8e-4 -1.94 0.00116-3.87 0.00534-5.81 0.00535-2.96 4.79e-5 -5.93-0.00635-8.89 6.61e-4 -1.88 0.00194-3.77 0.00391-5.65-0.00202-0.886-0.00405-1.77-0.00613-2.68 0.00315-0.828 0.0063-1.66 0.00955-2.51 7.96e-4 -0.725 0.00159-1.45 0.00241-2.2 0.132-2.12 0.548-4.01 1.13-6.05 9.01-1.08 18-1.22 27-1.24z" fill="#80481B"/>
<path transform="translate(166,114)" d="m0 0c2.56 1.58 4.68 3.57 6.88 5.62 1.24 1.11 2.48 2.22 3.72 3.33 0.589 0.532 1.18 1.06 1.79 1.61 3.04 2.7 6.33 5.04 9.62 7.43 5.21 3.94 10.3 8.01 15.1 12.4 1.75 1.54 3.54 3 5.36 4.45 0.825 0.722 1.65 1.44 2.5 2.19v2c0.99 0.33 1.98 0.66 3 1l-2 1c-10.8-7.74-10.8-7.74-14.5-10.9-2.39-2.23-2.39-2.23-5.5-3.06v-2h-3v-2h-3v-2c-0.598-0.103-1.2-0.206-1.81-0.312-2.55-0.801-3.36-1.78-5.19-3.69-4.62-4.3-9.08-8.31-15.5-9.44-4.55 0.796-7.6 3.51-10.8 6.77-3.05 2.96-6.26 5.32-9.75 7.73-4.11 2.87-8.12 5.76-12 8.94-1.58 1.27-3.17 2.54-4.75 3.81-0.86 0.692-1.72 1.38-2.61 2.1-1.73 1.37-3.48 2.71-5.26 4.02-0.808 0.599-1.62 1.2-2.45 1.82-0.733 0.531-1.47 1.06-2.22 1.61-1.94 1.86-2.34 3.02-2.71 5.64-2.97 0.495-2.97 0.495-6 1-0.103 0.619-0.206 1.24-0.312 1.88-0.688 2.12-0.688 2.12-3.69 4.12-1.15 3.46-1.16 6.21-1.21 9.86-0.0148 1.04-0.0148 1.04-0.03 2.1-0.0316 2.29-0.0564 4.58-0.0811 6.87-0.0206 1.59-0.0416 3.18-0.063 4.76-0.0552 4.18-0.105 8.35-0.153 12.5-0.0502 4.26-0.106 8.53-0.161 12.8-0.108 8.36-0.209 16.7-0.307 25.1 1.9-0.0309 1.9-0.0309 3.84-0.0625 3.25-0.0528 5.38 0.212 8.16 2.06 0.372 6.61 0.287 13.1-3 19-0.99 0.33-1.98 0.66-3 1v2c-3.21 0.0877-6.42 0.141-9.62 0.188-0.904 0.0251-1.81 0.0503-2.74 0.0762-6.48 0.0709-10.8-0.77-15.8-5.2-6.24-10.5-5.11-21.7-2.31-33.1 2.12-7.89 4.82-14.9 10.5-21 0.717-0.837 0.717-0.837 1.45-1.69 2.57-2.17 5.34-1.49 8.55-1.31 1.1-3.56 1.13-6.88 1.13-10.6 0.00129-1.28 0.00258-2.55 0.00391-3.87-0.00209-0.662-0.00419-1.32-0.00635-2.01-0.00535-2.02-4.35e-5 -4.04 0.00635-6.06-0.00129-1.28-0.00258-2.55-0.00391-3.87-0.00113-1.17-0.00226-2.34-0.00342-3.54-0.0121-2.95-0.0121-2.95-0.735-5.28-0.394-1.77-0.394-1.77 1.17-4.71 2.6-3.27 5.2-5.45 8.44-8.06 0.66-0.99 1.32-1.98 2-3 1.65-1.03 3.32-2.02 5-3 3.68-2.78 7.1-5.84 10.6-8.88 7.3-6.36 14.7-12.6 22.4-18.5 2.18-1.72 4.24-3.53 6.31-5.38 4.78-4.2 8.11-7.1 14.8-6.25z" fill="#E9EEEE"/>
<path transform="translate(229,205)" d="m0 0c0.33 0.99 0.66 1.98 1 3 0.66-0.33 1.32-0.66 2-1 4.01-0.547 5.63-0.239 9.06 2 5.69 5.35 8.3 10.5 8.69 18.2 0.278 3.11 1.01 5.92 1.81 8.94 1.92 8.04 3.71 18.3-0.125 26-3.86 4.45-6.72 6.61-12.6 7.05-2.97 0.0105-5.91-0.063-8.88-0.238-0.845-6.73-1.21-13.4-1.35-20.1-0.0232-1.04-0.0463-2.07-0.0702-3.14-0.0473-2.18-0.0926-4.35-0.136-6.53-0.0673-3.32-0.145-6.64-0.224-9.96-0.0449-2.12-0.0892-4.25-0.133-6.37-0.0239-0.986-0.0478-1.97-0.0724-2.99-0.0923-5.09 0.0874-9.86 0.986-14.9z" fill="#8F953A"/>
<path transform="translate(95,207)" d="m0 0c1.81 4.65 2.26 8.53 2.27 13.5 0.00264 0.713 0.00528 1.43 8e-3 2.16 0.00381 2.3-0.00878 4.6-0.0236 6.9-0.00177 0.78-0.00354 1.56-0.00537 2.36-0.0333 12.4-0.638 24.7-2.24 37.1-1.6 0.0322-3.19 0.0552-4.79 0.0742-1.33 0.0207-1.33 0.0207-2.69 0.0417-4.59-0.211-7.35-2.08-10.7-5.05-6.24-10.5-5.11-21.7-2.31-33.1 2.12-7.89 4.82-14.9 10.5-21 0.478-0.558 0.956-1.12 1.45-1.69 2.57-2.17 5.34-1.49 8.55-1.31z" fill="#8D9339"/>
<path transform="translate(157,218)" d="m0 0c0.66 0.33 1.32 0.66 2 1v20c3.07 0 5.96-0.136 9-0.438 0.846-0.0812 1.69-0.162 2.56-0.246 2.21-0.287 4.29-0.724 6.44-1.32-1.61-0.186-1.61-0.186-3.25-0.375-3.13-0.521-5.08-1.03-7.75-2.62 0.33-1.65 0.66-3.3 1-5 0.33 0.99 0.66 1.98 1 3 6.94 0.0759 13.9 0.129 20.8 0.165 2.36 0.0151 4.73 0.0356 7.09 0.0615 3.39 0.0363 6.78 0.0534 10.2 0.0667 1.06 0.0155 2.12 0.031 3.22 0.0469 0.981 2.27e-4 1.96 4.53e-4 2.97 6.87e-4 0.866 0.00666 1.73 0.0133 2.62 0.0202 1.04-0.179 1.04-0.179 2.1-0.361 0.66-0.99 1.32-1.98 2-3 0.495 0.99 0.495 0.99 1 2 0.66-0.33 1.32-0.66 2-1 0.495 0.99 0.495 0.99 1 2 0.66-0.33 1.32-0.66 2-1 1.06 1.88 1.06 1.88 2 4-0.33 0.66-0.66 1.32-1 2h2v10c-3.41 1.14-5.99 1.12-9.58 1.11-0.664 1.46e-4 -1.33 2.92e-4 -2.01 4.43e-4 -2.19-6.96e-4 -4.38-0.00847-6.57-0.0163-1.52-0.00187-3.04-0.00329-4.56-0.00429-4-0.00382-8-0.0136-12-0.0247-4.08-0.0102-8.16-0.0148-12.2-0.0198-8.01-0.0107-16-0.0278-24-0.0488-0.77-3.65-1.13-6.97-1.13-10.7-0.00129-1.06-0.00258-2.12-0.00391-3.22 0.00387-1.1 0.00773-2.2 0.0117-3.33-0.0058-1.67-0.0058-1.67-0.0117-3.38 0.00129-1.06 0.00258-2.11 0.00391-3.2 0.00113-0.968 0.00226-1.94 0.00342-2.93 0.129-2.24 0.129-2.24 1.13-3.24z" fill="#FAFBFC"/>
<path transform="translate(349 161)" d="m0 0c4.58 0.106 7.34 0.96 10.9 3.89 2.44 2.59 3.97 5.35 5.46 8.55 0.577 1.09 1.15 2.19 1.75 3.31 2.01 5.92 2.4 11.2-0.25 16.9-4.13 4.54-9.37 9.34-15.5 10.8-6.16-0.212-6.16-0.212-8.88-2.75-2.96-5.93-2.31-12.7-2.31-19.1-0.0122-1.06-0.0245-2.13-0.0371-3.22-0.0106-5.68 0.158-10.6 2.22-15.9 2.45-2.45 3.3-2.35 6.69-2.44z" fill="#000102"/>
<path transform="translate(112,163)" d="m0 0c-0.327 0.674-0.655 1.35-0.992 2.04-1.22 3.57-1.2 6.5-1.13 10.3 0.0271 1.88 0.0271 1.88 0.0547 3.8 0.0232 0.953 0.0464 1.91 0.0703 2.89 0.99 0.33 1.98 0.66 3 1-0.33 0.66-0.66 1.32-1 2-0.12 1.97-0.177 3.94-0.205 5.92-0.0199 1.24-0.0399 2.48-0.0604 3.76-0.017 1.36-0.0339 2.72-0.0506 4.08-0.0206 1.39-0.0416 2.77-0.063 4.16-0.0552 3.65-0.105 7.31-0.153 11-0.0502 3.73-0.106 7.45-0.161 11.2-0.108 7.31-0.209 14.6-0.307 21.9-1.63-0.141-3.25-0.288-4.88-0.438-1.36-0.122-1.36-0.122-2.74-0.246-2.38-0.316-2.38-0.316-4.38-1.32-0.0696-9.17-0.123-18.3-0.155-27.5-0.0156-4.26-0.0369-8.52-0.0709-12.8-0.0326-4.11-0.0505-8.22-0.0583-12.3-0.00554-1.57-0.0163-3.13-0.0326-4.7-0.0218-2.2-0.0248-4.39-0.0234-6.59-0.00666-1.25-0.0133-2.5-0.0202-3.79 0.39-3.56 1.17-5.48 3.36-8.3h2c0.0825-0.619 0.165-1.24 0.25-1.88 0.75-2.12 0.75-2.12 2.62-3.38 2.12-0.75 2.12-0.75 5.12-0.75z" fill="#F4F7F6"/>
<path transform="translate(111,254)" d="m0 0c0.66 0.33 1.32 0.66 2 1 1.39 0.0892 2.78 0.118 4.17 0.114 0.861-7.55e-5 1.72-1.51e-4 2.61-2.29e-4 0.93-0.00516 1.86-0.0103 2.82-0.0156 0.952-0.00141 1.9-0.00283 2.88-0.00429 3.05-0.00561 6.09-0.0182 9.14-0.0309 2.06-0.00501 4.12-0.00958 6.19-0.0137 5.06-0.011 10.1-0.0283 15.2-0.0488 0.276 1.1 0.552 2.19 0.836 3.32 1.31 4.14 3.02 5.78 6.16 8.68v2h-57c1.65-4.95 3.3-9.9 5-15z" fill="#8F953A"/>
<path transform="translate(182 187)" d="m0 0c2.2 0.336 2.2 0.336 8.2 2.34 0.33 12.5 0.66 25.1 1 38h-17c-4.19-4.19-2.26-18.3-2.31-23.9-0.029-1.11-0.058-2.23-0.0879-3.38-0.00838-1.07-0.0168-2.14-0.0254-3.24-0.0146-0.963-0.0292-1.93-0.0442-2.92 1.06-5.86 4.74-7.04 10.3-6.93z" fill="#EAEFEE"/>
<path transform="translate(611,153)" d="m0 0v4h-2v2h2v3h3c0.66 1.65 1.32 3.3 2 5 0.66-1.32 1.32-2.64 2-4 0.66 0.33 1.32 0.66 2 1 0.333 1.33 0.667 2.67 1 4 0.66 0.33 1.32 0.66 2 1 0.414 2.29 0.414 2.29 0.625 5.06 0.0748 0.919 0.15 1.84 0.227 2.79 0.049 0.71 0.098 1.42 0.148 2.15h-5c-0.33 1.98-0.66 3.96-1 6h5v9h3v3c1.98 0.33 3.96 0.66 6 1v3h2v-3h3v3h2c-0.495 4.95-0.495 4.95-1 10-0.33-0.99-0.66-1.98-1-3-1.49-0.495-1.49-0.495-3-1-0.33 1.32-0.66 2.64-1 4h-5v4h-4v-12h-2v-4h-5c-0.098-0.626-0.196-1.25-0.297-1.9-0.15-0.817-0.299-1.63-0.453-2.48-0.209-1.22-0.209-1.22-0.422-2.46-0.648-2.31-0.648-2.31-2.73-3.48-2.68-0.879-4.41-0.432-7.09 0.312-0.0904-5.15 0.153-9.92 1-15h-2c0.33-6.6 0.66-13.2 1-20 3-1 3-1 5-1z" fill="#FAFCFC"/>
<path transform="translate(207 187)" d="m0 0c0.901 0.00902 1.8 0.018 2.73 0.0273 0.687 0.0116 1.37 0.0232 2.08 0.0352 1.64 3.28 1.12 6.91 1.1 10.5-0.00141 0.841-0.00283 1.68-0.00429 2.55-0.00561 2.69-0.0182 5.38-0.0309 8.07-0.00501 1.82-0.00958 3.64-0.0137 5.46-0.011 4.47-0.0283 8.94-0.0488 13.4h-16c-1.88-3.77-1.03-8.62-0.961-12.8 0.0345-3.34 0.0243-6.02-1.04-9.21-0.17-2.14-0.266-4.29-0.312-6.44-0.0561-1.7-0.0561-1.7-0.113-3.43 0.513-3.77 1.44-4.85 4.43-7.13 3.01-1 5.04-1.1 8.19-1.06z" fill="#D3E1E4"/>
<path transform="translate(169,134)" d="m0 0c4.45 3.13 6.32 6.88 8 12 0.521 5.03 0.141 7.99-3 12-3.78 3.78-6.66 4.91-12 5-4.64-0.829-8.71-2.21-12.1-5.62-2.51-4.36-2.97-7.46-1.94-12.4 1.76-4.31 3.96-7.22 7.69-10 4.53-1.37 8.62-1.82 13.3-1z" fill="#D4E2E5"/>
<path transform="translate(369,133)" d="m0 0h4c2 3 2 3 2 6 0.866 0.186 0.866 0.186 1.75 0.375 2.27 0.631 4.18 1.51 6.25 2.62v2h2c0.33 0.99 0.66 1.98 1 3 2.64 0.33 5.28 0.66 8 1v8h3c0.39 1.77 0.762 3.54 1.12 5.31 0.209 0.986 0.418 1.97 0.633 2.99 0.242 2.7 0.242 2.7-1.76 5.7-3.12 0.188-3.12 0.188-6 0-0.33 3.3-0.66 6.6-1 10h-5c0.186-0.557 0.371-1.11 0.562-1.69 0.519-2.74 0.0328-4.6-0.562-7.31-0.037-1.67-0.0476-3.33 0-5h-3c-0.771-4.72-1.1-9.22-1-14-2.97-0.33-5.94-0.66-9-1-0.0735-1.32-0.0735-1.32-0.148-2.67-0.0748-1.16-0.15-2.32-0.227-3.52-0.0696-1.15-0.139-2.3-0.211-3.48-0.389-3.13-1.1-5.48-2.41-8.33z" fill="#FAFCFC"/>
<path transform="translate(983 152)" d="m0 0c4.74 0.839 8.23 2.72 11.6 6.12 2.07 3.34 2.66 7 2.59 10.9-1.39 4.89-6.46 7.81-10.6 10.3-3.18 1.29-5.7 0.564-8.96-0.207-2.58-1.9-2.96-2.89-4-6-0.2-2.64-0.323-5.23-0.375-7.88-0.0374-0.708-0.0748-1.42-0.113-2.14-0.0663-3.96 0.342-5.79 2.74-8.98 2.85-2.08 3.72-2.63 7.12-2.12z" fill="#000102"/>
<path transform="translate(1511,116)" d="m0 0c4 0 4 0 7 1v4c0.66-0.66 1.32-1.32 2-2h3c5.18 14.5 3.68 31.6-1 46h-3c-0.454 0.639-0.908 1.28-1.38 1.94-1.62 2.06-1.62 2.06-4.31 2.81-0.763 0.0825-1.53 0.165-2.31 0.25 0.428-4.5 0.933-8.76 2.02-13.1 1.18-5.2 1.32-10.2 1.29-15.5-0.00129-0.957-0.00258-1.91-0.00391-2.9-0.105-7.78-1.16-14.9-3.31-22.4z" fill="#F9FBFB"/>
<path transform="translate(166,121)" d="m0 0c2.42 0.988 2.42 0.988 4.75 2.31 1.17 0.644 1.17 0.644 2.36 1.3 1.89 1.39 1.89 1.39 2.89 4.39-2.44-0.375-2.44-0.375-5-1-0.495-0.99-0.495-0.99-1-2-0.763 0.186-1.53 0.371-2.31 0.562-2.69 0.438-2.69 0.438-5.69-0.562 0.495 1.98 0.495 1.98 1 4h-2v2c0.66 0.33 1.32 0.66 2 1-0.687 0.315-1.37 0.629-2.08 0.953-1.35 0.642-1.35 0.642-2.73 1.3-0.893 0.418-1.79 0.835-2.71 1.27-2.59 1.55-3.86 2.97-5.48 5.48l-1-2c-5.55 0.744-5.55 0.744-11 2v2h-2v2h-2v2c-1.64 1.69-1.64 1.69-3.81 3.56-0.708 0.62-1.42 1.24-2.14 1.88-2.04 1.56-2.04 1.56-5.04 2.56v2h-2v2h-2c-4.75 11.2-4.75 11.2-4 23-2.44-0.375-2.44-0.375-5-1-2.23-4.46-1.81-11.4-0.328-16.1 0.828-1.62 0.828-1.62 2.33-3.88-0.66-0.33-1.32-0.66-2-1 6.14-5.6 12.7-10.7 19.3-15.7 1.72-1.31 3.43-2.64 5.13-3.97 5.44-4.24 10.9-8.29 16.7-12 2.59-1.82 4.7-4.01 6.87-6.31 3.28-2.19 4.2-2.39 8-2z" fill="#F9FBFB"/>
<path transform="translate(1424,188)" d="m0 0h3c0.33 0.66 0.66 1.32 1 2 0.33-0.66 0.66-1.32 1-2h3v7h2v7h2v2h2v7h-2c-0.66-1.65-1.32-3.3-2-5-0.33 3.63-0.66 7.26-1 11h4v9h-3v4h-5v2h4c0.33 0.99 0.66 1.98 1 3h-7c-0.942-2.83-1.08-4.41-1-7.31 0.0341-2.66-0.0426-4.93-0.5-7.56-0.752-4.7-0.576-9.38-0.5-14.1h-2v-15h-5v-1h6v-2z" fill="#FAFCFC"/>
<path transform="translate(195 181)" d="m0 0c2.49-0.00984 4.97-0.041 7.46-0.0723 1.59-0.00652 3.17-0.0118 4.76-0.0156 0.741-0.0123 1.48-0.0247 2.24-0.0374 5.06 0.0221 5.06 0.0221 7.56 1.69 1.66 2.73 1.01 5.13 0.639 8.23-0.725 4.37-0.725 4.37 0.375 8.44 0.0991 2.57 0.139 5.11 0.125 7.69 0.0058 1.04 0.0058 1.04 0.0117 2.11-0.0116 6.2-0.85 12.1-2.14 18.2h-1c-0.495-2.97-0.495-2.97-1-6h-1c-0.33-11.2-0.66-22.4-1-34-8.11 1.05-8.11 1.05-16 3-0.66-1.98-1.32-3.96-2-6h-3c-0.33 1.32-0.66 2.64-1 4-1.46-0.0522-1.46-0.0522-2.96-0.105-1.27-0.0271-2.54-0.0541-3.86-0.082-1.26-0.0348-2.53-0.0696-3.83-0.105-3.32-0.0309-3.32-0.0309-5.18 1.8-0.388 0.491-0.776 0.982-1.18 1.49h-2c-1.12-5.75-1.12-5.75 0-8-0.66-0.33-1.32-0.66-2-1 8.66-1.09 17.3-1.22 26-1.24z" fill="#8F943A"/>
<path transform="translate(166,114)" d="m0 0c2.56 1.58 4.68 3.57 6.88 5.62 1.24 1.11 2.48 2.22 3.72 3.33 0.589 0.532 1.18 1.06 1.79 1.61 3.04 2.7 6.33 5.04 9.62 7.43 5.21 3.94 10.3 8.01 15.1 12.4 1.75 1.54 3.54 3 5.36 4.45 0.825 0.722 1.65 1.44 2.5 2.19v2c1.49 0.495 1.49 0.495 3 1l-2 1c-10.8-7.74-10.8-7.74-14.5-10.9-2.39-2.23-2.39-2.23-5.5-3.06v-2h-3v-2h-3v-2c-0.598-0.103-1.2-0.206-1.81-0.312-2.55-0.8-3.36-1.78-5.19-3.69-2.28-2.07-4.63-4.04-7-6-0.594-0.507-1.19-1.01-1.8-1.54-2.83-2.25-4.46-3.42-8.14-3.65-4.82 1.87-8.85 4.93-12.5 8.62-2.79 2.74-5.97 4.98-9.1 7.32-0.71 0.532-1.42 1.06-2.15 1.61-5.62 4.17-11.4 8.03-17.3 11.6 0.179-3.83 0.909-4.92 3.77-7.58 1.19-0.903 2.39-1.79 3.6-2.67 1.28-0.968 2.56-1.94 3.84-2.91 0.639-0.478 1.28-0.956 1.94-1.45 5.95-4.5 11.7-9.31 17.2-14.3 4.74-4.15 8.06-6.96 14.6-6.12z" fill="#D3E1E3"/>
<path transform="translate(190,141)" d="m0 0c4.41 2.02 7.88 4.36 11.6 7.5 3.36 2.86 6.64 5.26 10.4 7.5 2.81 2.56 2.81 2.56 5 5v2c0.619 0.248 1.24 0.495 1.88 0.75 2.53 1.49 2.93 2.63 4.12 5.25 0.766 0.646 0.766 0.646 1.55 1.3 2 2.34 1.76 3.86 1.64 6.88-0.0406 1.35-0.0406 1.35-0.082 2.73-0.0522 1.03-0.0522 1.03-0.105 2.08-6.77 0.114-13.3-0.12-20-1v-1c2.97-0.495 2.97-0.495 6-1 0.756-9.48 0.756-9.48-3.56-17.5-1.37-1.39-2.75-2.76-4.12-4.14-2.31-2.31-2.31-2.31-3.38-4.5-1.22-2.35-2.61-2.68-4.94-3.81-0.33-0.99-0.66-1.98-1-3h-2v-2c-0.99-0.33-1.98-0.66-3-1v-2z" fill="#FAFBFC"/>
<path transform="translate(810 183)" d="m0 0c1.14 0.619 1.14 0.619 2.3 1.25 4.37 2.3 8.77 4.43 13.2 6.5 1.29 0.601 2.57 1.2 3.86 1.8 2.24 1.05 4.49 2.07 6.76 3.08 0.891 0.41 1.78 0.82 2.7 1.24 0.77 0.343 1.54 0.686 2.33 1.04 2.44 1.75 2.97 3.52 3.86 6.34-2.48 2.47-2.48 2.47-5 5-6.27-1.49-10.9-5.23-16-9-0.761-0.527-1.52-1.05-2.3-1.6-0.559-0.463-1.12-0.926-1.7-1.4v-2c-0.715-0.266-1.43-0.531-2.17-0.805-2.9-1.22-5.46-2.68-8.14-4.32-0.883-0.539-1.77-1.08-2.68-1.63-0.664-0.41-1.33-0.82-2.01-1.24 0.66-0.66 1.32-1.32 2-2-0.66-0.66-1.32-1.32-2-2 3-1 3-1 4.95-0.25z" fill="#010303"/>
<path transform="translate(1251,157)" d="m0 0h2v3h2v4h3c-0.33-0.66-0.66-1.32-1-2 0.33-0.66 0.66-1.32 1-2h2v4h2v4h2v6h2c0.66 3.3 1.32 6.6 2 10-1.32-0.33-2.64-0.66-4-1-1.68 0.644-3.34 1.31-5 2-2.81 0.125-2.81 0.125-5 0v2h-3v-2h2v-6h-2v-2h-2c0.142-2.4 0.288-4.79 0.438-7.19 0.0393-0.674 0.0786-1.35 0.119-2.04 0.233-3.67 0.615-7.19 1.44-10.8z" fill="#FAFCFC"/>
<path transform="translate(169,134)" d="m0 0c4.45 3.13 6.32 6.88 8 12 0.521 5.03 0.141 7.99-3 12-3.78 3.78-6.66 4.91-12 5-4.64-0.829-8.71-2.21-12.1-5.62-2.51-4.36-2.97-7.46-1.94-12.4 1.76-4.31 3.96-7.22 7.69-10 4.53-1.37 8.62-1.82 13.3-1zm-14 6c-3.3 4.62-3.87 8.53-3 14 1.9 2.71 3.85 4.02 7 5 4.79-0.125 9.52-0.522 13-4 0.32-2.76 0.32-2.76 0.25-5.88 0.00516-1.05 0.0103-2.1 0.0156-3.18-0.261-2.89-0.679-4.54-2.27-6.95-4.69-2.34-10.5-1.26-15 1z" fill="#80491B"/>
<path transform="translate(1346,210)" d="m0 0c2.62 3.06 3 3.73 3 8h3v3h2c0.921 4.66 1.12 9.15 1.06 13.9-0.00451 0.688-0.00902 1.38-0.0137 2.09-0.0117 1.68-0.0296 3.36-0.0488 5.04h-2c-0.33 0.66-0.66 1.32-1 2v-16c-1.47 3.68-2.3 6.24-3 10-0.643 2.67-1.32 5.34-2 8-0.99-1.32-1.98-2.64-3-4-0.66 1.32-1.32 2.64-2 4-0.66-0.66-1.32-1.32-2-2h-1c0.472-7.07 1.75-13.8 3.31-20.7 0.567-2.7 0.98-5.3 1.25-8.04 0.438-3.25 0.438-3.25 2.44-5.25z" fill="#F9FBFB"/>
<path transform="translate(184,187)" d="m0 0c3.5 1 3.5 1 6 2v12c-2.7 1.35-5.12 1.34-8.12 1.56-1.94 0.144-3.88 0.289-5.88 0.438-0.33 4.62-0.66 9.24-1 14-0.99-0.33-1.98-0.66-3-1-0.116-4.08-0.187-8.17-0.25-12.2-0.0335-1.16-0.067-2.32-0.102-3.51-0.0129-1.12-0.0258-2.23-0.0391-3.38-0.0209-1.03-0.0419-2.05-0.0635-3.11 1.15-6.95 6.34-7.57 12.5-6.75z" fill="#D4E2E5"/>
<path transform="translate(296,134)" d="m0 0h2c0.0247 4.66 0.0429 9.33 0.0549 14 0.00503 1.59 0.0119 3.17 0.0205 4.76 0.0121 2.28 0.0178 4.56 0.0222 6.84 0.00516 0.712 0.0103 1.42 0.0156 2.16 5.75e-4 5.03 5.75e-4 5.03-1.11 7.26-0.0987 2.54-0.14 5.06-0.133 7.6-0.00144 1.12-0.00144 1.12-0.0029 2.27-6.81e-4 1.58 0.00117 3.17 0.00534 4.75 0.00536 2.43 4.76e-5 4.87-0.00635 7.3 6.61e-4 1.54 0.00194 3.07 0.00391 4.61-0.00202 0.732-0.00405 1.46-0.00613 2.22-0.289 3.41-0.289 3.41 1.14 6.25 0.0875 1.93 0.107 3.86 0.0977 5.79-0.00322 1.17-0.00645 2.34-0.00977 3.54-0.00838 1.23-0.0168 2.46-0.0254 3.73-0.00451 1.24-0.00902 2.47-0.0137 3.74-0.0118 3.06-0.0283 6.13-0.0488 9.19h2c-0.33 2.64-0.66 5.28-1 8h-2c-0.317-2.08-0.629-4.17-0.938-6.25-0.174-1.16-0.348-2.32-0.527-3.52-1.41-10.5-1.83-21-2.16-31.6-0.0221-0.708-0.0443-1.42-0.067-2.15-0.598-20.1-0.894-40.6 2.69-60.5z" fill="#F9FBFB"/>
<path transform="translate(837,133)" d="m0 0h13v4h-2v3h-4v2c-1.32 0.33-2.64 0.66-4 1v3h-2c-0.167 1.65-0.334 3.29-0.5 4.94-0.139 1.37-0.139 1.37-0.281 2.78-0.162 1.64-0.162 1.64-0.219 3.29v3c0.66 0.33 1.32 0.66 2 1h-3c-0.33-0.66-0.66-1.32-1-2-0.66 1.32-1.32 2.64-2 4h-2c-0.33 2.64-0.66 5.28-1 8h-7v-8h-2v-2c3.47-1.16 6.36-1.07 10-1v-7h2c0.33-3.96 0.66-7.92 1-12h3v-8z" fill="#FAFCFC"/>
<path transform="translate(746,190)" d="m0 0h3c0.66 4.95 1.32 9.9 2 15v-4-11h3c1.02 7.26 2.01 14.5 2.75 21.8 0.147 1.43 0.147 1.43 0.297 2.89-0.0469 2.29-0.0469 2.29-2.05 4.29-2.12-0.375-2.12-0.375-4-1v5c-1.98 0.495-1.98 0.495-4 1v-6h-2v-5h-2v-10h3v-13z" fill="#FAFCFC"/>
<path transform="translate(97,246)" d="m0 0c7.43 3.14 7.43 3.14 11 5v8h2c-0.812 3.44-0.812 3.44-2 7-0.99 0.33-1.98 0.66-3 1v2h-9c-2.5-7.51-0.959-15.5 1-23z" fill="#D4E2E5"/>
<path transform="translate(1085,217)" d="m0 0h4v6h6c0.33-1.98 0.66-3.96 1-6 1.32 0.33 2.64 0.66 4 1v7c1.32 0.33 2.64 0.66 4 1h-4v11c0.99 0.33 1.98 0.66 3 1h-2c-0.33 0.66-0.66 1.32-1 2-1.48-2.96-1.06-5.74-1-9h-6v6h5c-0.66 0.33-1.32 0.66-2 1-0.33 0.66-0.66 1.32-1 2v-2h-2v4c0.66 0.33 1.32 0.66 2 1h-3c-0.33-1.32-0.66-2.64-1-4h-3c-3.51-7.31-3.3-14-3-22z" fill="#FAFCFC"/>
<path transform="translate(797,204)" d="m0 0c0.99 0.33 1.98 0.66 3 1-0.0116 0.687-0.0232 1.37-0.0352 2.08-0.00902 0.901-0.018 1.8-0.0273 2.73-0.0116 0.893-0.0232 1.79-0.0352 2.71-0.0124 2.61-0.0124 2.61 1.1 5.48h6v-2h2v-6c1.32 0.33 2.64 0.66 4 1v4h4v4h-6c0.33 2.64 0.66 5.28 1 8-1.98 0.66-3.96 1.32-6 2v2h-4v-2h-3c-0.33-0.99-0.66-1.98-1-3-0.66-0.33-1.32-0.66-2-1 0.33-4.29 0.66-8.58 1-13h-4v-2h4v-6z" fill="#FAFCFC"/>
<path transform="translate(138,140)" d="m0 0h2v2h-2v2h-2v2h-2v2c-1.64 1.69-1.64 1.69-3.81 3.56-1.06 0.93-1.06 0.93-2.14 1.88-2.04 1.56-2.04 1.56-5.04 2.56v2h-2v2h-2c-4.75 11.2-4.75 11.2-4 23-2.44-0.375-2.44-0.375-5-1-2.23-4.46-1.81-11.4-0.328-16.1 0.828-1.62 0.828-1.62 2.33-3.88-0.66-0.33-1.32-0.66-2-1 4.73-4.32 9.64-8.38 14.7-12.3 0.546-0.432 1.09-0.865 1.66-1.31 3.11-2.4 5.99-4.01 9.66-5.38l2-2z" fill="#FAFCFC"/>
<path transform="translate(211,114)" d="m0 0c1.63 0.566 3.25 1.15 4.88 1.75 0.905 0.325 1.81 0.65 2.74 0.984 2.85 1.51 3.43 2.21 4.38 5.27 0.289 2.41 0.49 4.83 0.625 7.25 0.0748 1.26 0.15 2.53 0.227 3.83 0.049 0.964 0.098 1.93 0.148 2.92-5.37 0.225-7.71-0.687-12-4-2-2-2-2-2.23-5.19 0.0142-1.26 0.0284-2.52 0.043-3.81 0.00645-1.26 0.0129-2.52 0.0195-3.81 0.168-3.19 0.168-3.19 1.17-5.19z" fill="#8E9439"/>
<path transform="translate(448,217)" d="m0 0c1.6-0.108 3.21-0.186 4.81-0.25 0.893-0.0464 1.79-0.0928 2.71-0.141 2.48 0.391 2.48 0.391 4.3 2.41 0.582 0.982 0.582 0.982 1.18 1.98h-4v8h-5v5c-0.99 0.33-1.98 0.66-3 1 0.33 0.99 0.66 1.98 1 3 0.66 0.33 1.32 0.66 2 1h-7c-0.33-3.3-0.66-6.6-1-10h-2v-9c0.804-0.124 1.61-0.248 2.44-0.375 0.846-0.206 1.69-0.412 2.56-0.625 0.33-0.66 0.66-1.32 1-2z" fill="#FAFCFC"/>
<path transform="translate(271,159)" d="m0 0 2 1v39c-0.495-1.49-0.495-1.49-1-3-0.99 0.495-0.99 0.495-2 1-0.33 5.94-0.66 11.9-1 18-0.99 0.495-0.99 0.495-2 1-1.5-5.23-1.45-10.6-1.69-16-0.0599-1.09-0.12-2.19-0.182-3.31-0.0471-1.05-0.0941-2.1-0.143-3.19-0.069-1.44-0.069-1.44-0.139-2.91 0.159-2.72 0.755-4.28 2.15-6.59h1c0.049-1.13 0.098-2.27 0.148-3.44 0.0751-1.52 0.151-3.04 0.227-4.56 0.0309-0.744 0.0619-1.49 0.0938-2.25 0.269-5.15 1.14-9.78 2.53-14.7z" fill="#FAFDFF"/>
<path transform="translate(325,178)" d="m0 0h2c0.66 1.98 1.32 3.96 2 6 0.33-1.98 0.66-3.96 1-6h2c1.81 4.62 2.22 8.43 2.12 13.4-0.018 1.25-0.0361 2.49-0.0547 3.77-0.0232 0.941-0.0464 1.88-0.0703 2.85-1.65 0.33-3.3 0.66-5 1-0.562-1.94-0.562-1.94-1-4 0.33-0.33 0.66-0.66 1-1-0.66-0.33-1.32-0.66-2-1v10h-2c0.33 1.65 0.66 3.3 1 5-1.32 0.33-2.64 0.66-4 1-0.0543-2.88-0.0938-5.75-0.125-8.62-0.0168-0.808-0.0335-1.62-0.0508-2.45-0.0387-4.76 0.431-8.43 2.18-12.9 0.375-2.33 0.719-4.66 1-7z" fill="#FAFCFC"/>
<path transform="translate(218,229)" d="m0 0 2 2c0.66-0.33 1.32-0.66 2-1l1 2c0.66-0.33 1.32-0.66 2-1 1.06 1.87 1.06 1.87 2 4-0.33 0.66-0.66 1.32-1 2h2v10c-3.95 1.32-7.71 1.12-11.8 1.1-0.861-0.00141-1.72-0.00283-2.61-0.00429-2.75-0.0056-5.5-0.0181-8.25-0.0309-1.87-0.00502-3.73-0.00958-5.6-0.0137-4.57-0.011-9.14-0.0283-13.7-0.0488v-1c10.9-0.33 21.8-0.66 33-1v-9c-3.63-0.66-7.26-1.32-11-2v-2c4.45-0.495 4.45-0.495 9-1 0.33-0.99 0.66-1.98 1-3z" fill="#F4F7F6"/>
<path transform="translate(1368,126)" d="m0 0v6h2v2h-2v6h4v3c-1.98 0.33-3.96 0.66-6 1v2h2v3h-2c0.33 1.98 0.66 3.96 1 6h-2c-0.33-0.99-0.66-1.98-1-3h-4-1c-0.33-2.31-0.66-4.62-1-7h2v-2h3v-7h-2v-9c2.46-1.23 4.28-1.07 7-1z" fill="#FAFCFC"/>
<path transform="translate(217 102)" d="m0 0c1.2 0.00483 1.2 0.00483 2.43 0.00977 1.25 0.0126 1.25 0.0126 2.53 0.0254 0.845 0.00451 1.69 0.00902 2.56 0.0137 2.08 0.0118 4.17 0.0297 6.25 0.0488v9c-3.29 0.196-6.58 0.381-9.88 0.562-0.937 0.0561-1.87 0.112-2.84 0.17-0.896 0.0483-1.79 0.0967-2.71 0.146-0.827 0.0471-1.65 0.0943-2.51 0.143-2.06-0.0217-2.06-0.0217-4.06-1.02 0.33-2.64 0.66-5.28 1-8 2.77-0.922 4.38-1.12 7.23-1.1z" fill="#7C8132"/>
<path transform="translate(884,139)" d="m0 0c0.33 0.66 0.66 1.32 1 2 5.94-0.495 5.94-0.495 12-1l-2 1v3h-2v6h2v6c0.66 0.33 1.32 0.66 2 1-0.99 0.33-1.98 0.66-3 1-0.99-0.66-1.98-1.32-3-2-1.99-0.39-3.99-0.732-6-1v-7c-1.98 0.33-3.96 0.66-6 1 0.33-0.99 0.66-1.98 1-3h2v-2c-0.99-0.33-1.98-0.66-3-1 1.63-1.71 2.87-2.93 5-4z" fill="#FAFCFC"/>
<path transform="translate(558,168)" d="m0 0h2c0.028 1.58 0.0468 3.17 0.0625 4.75 0.0116 0.882 0.0232 1.76 0.0352 2.67-0.081 2.97-0.294 5.85-0.57 8.8-0.814 9.32-0.884 18.7-1.08 28-0.0522 2.43-0.109 4.87-0.167 7.3-0.0136 0.73-0.0272 1.46-0.0411 2.21-0.115 4.81-0.578 9.48-1.24 14.2h-2c-0.523-52.7-0.523-52.7 3-68z" fill="#F9FBFC"/>
<path transform="translate(96,203)" d="m0 0c0.99 0.33 1.98 0.66 3 1v41h8c2.5 1 2.5 1 4 2 0.027 1.62 0.0464 3.25 0.0625 4.88 0.0116 0.905 0.0232 1.81 0.0352 2.74-0.0977 2.38-0.0977 2.38-1.1 4.38h-2c-0.994-3.09-0.878-4.9 0-8-0.615-0.17-1.23-0.34-1.86-0.516-0.808-0.242-1.62-0.485-2.45-0.734-0.801-0.232-1.6-0.464-2.43-0.703-2.83-1.31-3.7-2.34-5.26-5.05-0.325-3.25-0.325-3.25-0.258-7.07 0.00992-1.01 0.00992-1.01 0.0201-2.05 0.0233-2.15 0.067-4.3 0.113-6.45 0.0351-2.15 0.0659-4.31 0.0913-6.46 0.0247-1.95 0.0618-3.9 0.0996-5.85 0.0876-3.16 0.0876-3.16-1.07-6.12 0.278-2.34 0.605-4.68 1-7z" fill="#EAEFEE"/>
<path transform="translate(157,248)" d="m0 0c0.66 0.33 1.32 0.66 2 1v2h5c1.46 2.65 2 3.89 2 7 0.66 0.825 1.32 1.65 2 2.5 2 2.5 2 2.5 2 5.5 0.99 0.33 1.98 0.66 3 1v2h-9v-2c-0.99-0.33-1.98-0.66-3-1-2.8-2.2-3.87-3.42-4.64-6.95-0.0554-1.05-0.111-2.1-0.168-3.18-0.0683-1.05-0.137-2.11-0.207-3.2 0.0195-2.68 0.0195-2.68 1.02-4.68z" fill="#D4E2E5"/>
<path transform="translate(1008,134)" d="m0 0h4c0.33 1.98 0.66 3.96 1 6h2v3c3.3-0.33 6.6-0.66 10-1v5c-2.31 0.33-4.62 0.66-7 1v2h-4v3h2v2h-7c0.33-3.96 0.66-7.92 1-12h-2v-9z" fill="#FAFCFC"/>
<path transform="translate(1374,186)" d="m0 0c-0.39 7.8-2.76 13.9-6 21h-2v-7c-0.99 0.66-1.98 1.32-3 2-0.33-3.3-0.66-6.6-1-10-1.32-0.33-2.64-0.66-4-1 2.51-3.11 4.68-3.58 8.56-4.19 1.46-0.238 1.46-0.238 2.94-0.48 2.5-0.332 2.5-0.332 4.5-0.332z" fill="#FAFCFE"/>
<path transform="translate(202,150)" d="m0 0c5.83 2.69 10.7 6.21 15 11v2c0.619 0.248 1.24 0.495 1.88 0.75 2.53 1.49 2.93 2.63 4.12 5.25 0.766 0.646 0.766 0.646 1.55 1.3 2.77 3.23 1.61 7.65 1.45 11.7h-11c1.07-2.21 2.15-4.43 3.22-6.64 0.886-2.69 0.805-3.76-0.223-6.36-1.32-2.01-2.66-4.01-4-6v-2h-2v-2h-2c-3.01-2.78-5.64-5.65-8-9z" fill="#F5F8F7"/>
<path transform="translate(1103,195)" d="m0 0h9c0.125 6.62 0.125 6.62-1 10h-2v6h-4v-2c-2.31-0.33-4.62-0.66-7-1v-2h4v-3h-6v-2h6c0.33-1.98 0.66-3.96 1-6z" fill="#FAFCFC"/>
<path transform="translate(264,146)" d="m0 0h2v57h-1v-5h-2c-0.0252-4.67-0.0431-9.35-0.0549-14-0.00495-1.58-0.0117-3.16-0.0205-4.74-0.0602-11.1 0.292-22.1 1.08-33.2z" fill="#F6F9F9"/>
<path transform="translate(380,221)" d="m0 0 2 1c-0.33 4.95-0.66 9.9-1 15h-2v3h-2v-3c-1.32-0.33-2.64-0.66-4-1 1.32-0.33 2.64-0.66 4-1v-3h-6v4c-6.15 0.0977-6.15 0.0977-8 0-1-1-1-1-1.06-3.56 0.0206-0.804 0.0412-1.61 0.0625-2.44 4.96-1.32 9.91-1.09 15-1v-4h2c0.33-1.32 0.66-2.64 1-4z" fill="#FAFCFC"/>
<path transform="translate(1343,225)" d="m0 0h1v6c0.784-0.516 1.57-1.03 2.38-1.56 1.3-0.712 1.3-0.712 2.62-1.44 0.66 0.33 1.32 0.66 2 1-0.217 0.835-0.217 0.835-0.438 1.69-0.368 1.51-0.703 3.03-1 4.56-0.739 3.62-1.65 7.17-2.56 10.8-0.99-1.32-1.98-2.64-3-4-0.66 1.32-1.32 2.64-2 4-0.66-0.66-1.32-1.32-2-2h-1c0.964-10.6 0.964-10.6 2-15h2v-4z" fill="#F3F6F5"/>
<path transform="translate(431,188)" d="m0 0c0.99 0.33 1.98 0.66 3 1v46c-2.56-2.56-2.91-4.48-3.12-8.04 0.00222-0.719 0.00444-1.44 0.00673-2.18 7.55e-5 -0.821 1.51e-4 -1.64 2.29e-4 -2.49 0.00516-0.876 0.0103-1.75 0.0156-2.66 0.00141-0.904 0.00283-1.81 0.00429-2.74 0.00559-2.88 0.0181-5.77 0.0309-8.65 0.00502-1.96 0.00958-3.91 0.0137-5.87 0.011-4.79 0.0283-9.59 0.0488-14.4z" fill="#FAFCFC"/>
<path transform="translate(200,210)" d="m0 0c3.09 2.53 4.02 5.18 5 9-0.33 0.66-0.66 1.32-1 2h2v-5c0.66 0.33 1.32 0.66 2 1-0.0206 0.949-0.0412 1.9-0.0625 2.88-0.163 3.03-0.163 3.03 1.06 5.12h3v-8h1v10h-16c0.66-0.33 1.32-0.66 2-1-0.0954-0.736-0.191-1.47-0.289-2.23-0.111-0.976-0.222-1.95-0.336-2.96-0.116-0.963-0.232-1.93-0.352-2.92-0.0254-3.14 0.633-5.09 1.98-7.89z" fill="#EBF0EF"/>
<path transform="translate(169,134)" d="m0 0c3.12 2.19 3.12 2.19 5 5 0.312 2.81 0.312 2.81 0 5-2-1.38-2-1.38-4-3v-2c-5.13-0.103-9.95-0.0359-15 1-1.59 4.18-2.21 7.53-2 12h-2c-0.124-0.969-0.248-1.94-0.375-2.94-0.206-1.01-0.412-2.02-0.625-3.06-0.66-0.33-1.32-0.66-2-1 4.82-8.97 10.5-12.9 21-11z" fill="#8E9139"/>
<path transform="translate(885,204)" d="m0 0h4c0.872 2.99 1.11 5.64 1.06 8.75-0.00902 0.799-0.018 1.6-0.0273 2.42-0.0116 0.603-0.0232 1.21-0.0352 1.83-0.99 0.33-1.98 0.66-3 1v2c-1.65 0.33-3.3 0.66-5 1v-2h-2c-0.383-5.23 0.781-8.38 3-13h2v-2z" fill="#FAFCFC"/>
<path transform="translate(168,182)" d="m0 0c0.99 0.33 1.98 0.66 3 1 1.02 7.31 1.51 14.6 2 22h-2v21h-1c-0.33-6.93-0.66-13.9-1-21-0.66-0.33-1.32-0.66-2-1-0.027-2.92-0.0468-5.83-0.0625-8.75-0.00838-0.825-0.0168-1.65-0.0254-2.5-0.00322-0.799-0.00645-1.6-0.00977-2.42-0.00524-0.733-0.0105-1.47-0.0159-2.22 0.116-2.15 0.523-4.04 1.11-6.11z" fill="#80491B"/>
<path transform="translate(1358,197)" d="m0 0h5c0.33 1.32 0.66 2.64 1 4 0.99-0.66 1.98-1.32 3-2-0.33 2.64-0.66 5.28-1 8h2c-0.66 2.31-1.32 4.62-2 7-0.99-0.66-1.98-1.32-3-2-0.99 1.32-1.98 2.64-3 4 0.33-3.63 0.66-7.26 1-11h-2v2h-2c-1.31-3.94-0.243-6.12 1-10zm-3 9c0.99 0.495 0.99 0.495 2 1-0.33 0.99-0.66 1.98-1 3-0.33-1.32-0.66-2.64-1-4z" fill="#F7F9F9"/>
<path transform="translate(328 82.9)" d="m0 0c0.922 0.00451 1.84 0.00902 2.79 0.0137 2.26 0.0117 4.51 0.0281 6.77 0.0488v1c-5.94 0.33-11.9 0.66-18 1 5.94 0.33 11.9 0.66 18 1-3.06 3.06-6.75 2.47-10.9 2.62-1.28 0.0569-1.28 0.0569-2.58 0.115-6.51 0.271-13 0.377-19.5 0.26 2.08-3.13 2.64-3.73 6-5 5.84-1.07 11.5-1.12 17.4-1.06z" fill="#FAFCFD"/>
<path transform="translate(1116,177)" d="m0 0h6v4c0.969-0.0206 1.94-0.0412 2.94-0.0625 3.06 0.0625 3.06 0.0625 4.06 1.06 2.33 0.368 4.66 0.702 7 1v1h-6v3c2.97 0.495 2.97 0.495 6 1v1h-6v3h-5v-10c-1.98 0.33-3.96 0.66-6 1-0.33 1.65-0.66 3.3-1 5h-2v-11z" fill="#FAFCFC"/>
<path transform="translate(1198,202)" d="m0 0h2c1.67 4.35 2.21 7.77 2.01 12.4-0.0471 1.19-0.0941 2.38-0.143 3.61-0.0599 1.23-0.12 2.46-0.182 3.72-0.0483 1.24-0.0967 2.49-0.146 3.77-0.395 9.19-0.395 9.19-1.54 11.5h-2v-35z" fill="#F9FBFB"/>
<path transform="translate(295,202)" d="m0 0c1.49 0.99 1.49 0.99 3 2 0.341 2.61 0.341 2.61 0.293 5.88-0.00967 1.17-0.0193 2.33-0.0293 3.54-0.0251 1.22-0.0503 2.45-0.0762 3.71-0.0135 1.23-0.0271 2.46-0.041 3.73-0.0354 3.05-0.0849 6.1-0.146 9.14h2c-0.33 2.64-0.66 5.28-1 8h-2c-1.46-8.43-2.27-16.8-2.69-25.3-0.0483-0.937-0.0965-1.87-0.146-2.84-0.0381-0.874-0.0762-1.75-0.115-2.65-0.0344-0.785-0.0688-1.57-0.104-2.38 0.0535-1.82 0.0535-1.82 1.05-2.82z" fill="#F9FBFB"/>
<path transform="translate(460,158)" d="m0 0c1.14 0.278 1.14 0.278 2.31 0.562 2.78 0.666 2.78 0.666 5.69-0.562 0.66 0.33 1.32 0.66 2 1 0.125 2.88 0.125 2.88 0 6-0.66 0.66-1.32 1.32-2 2 0.33 0.99 0.66 1.98 1 3-6.4 0.492-6.4 0.492-9.44-2-0.516-0.66-1.03-1.32-1.56-2h2c-0.66-1.65-1.32-3.3-2-5h2v-3z" fill="#FAFCFC"/>
<path transform="translate(857,184)" d="m0 0h2v6c2.31 0.33 4.62 0.66 7 1v2h-3c0.33 3.63 0.66 7.26 1 11-1.32-0.66-2.64-1.32-4-2v-2h2v-6c-0.99 0.495-0.99 0.495-2 1v4h-4c-0.66-2.31-1.32-4.62-2-7h2c-0.66-1.98-1.32-3.96-2-6h3v-2z" fill="#FAFCFC"/>
<path transform="translate(164 119)" d="m0 0c2.56 1.06 2.56 1.06 4.56 4.06-1.2-0.248-2.39-0.495-3.62-0.75-3.46-0.427-4.29-0.292-7.56 1.38-2.8 2.28-2.8 2.28-5.05 4.71-3.06 2.95-6.27 5.32-9.76 7.73-4.11 2.86-8.12 5.76-12 8.94-0.66-0.33-1.32-0.66-2-1 16.4-15 16.4-15 21-15 0.364-0.888 0.364-0.888 0.734-1.79 2.79-4.87 8.16-8.17 13.7-8.27z" fill="#EBF0EF"/>
<path transform="translate(1277,117)" d="m0 0c0.99 0.33 1.98 0.66 3 1-0.165 1.24-0.33 2.47-0.5 3.75-0.885 8.04-0.767 16 0.277 24 0.404 4.07 0.299 8.16 0.223 12.2h-1v-7h-2c-0.887-6.83-1.15-13.5-1.12-20.4-0.00387-0.984-0.00773-1.97-0.0117-2.98 0.00129-0.942 0.00258-1.88 0.00391-2.86 0.00113-0.849 0.00226-1.7 0.00342-2.57 0.129-2.22 0.129-2.22 1.13-5.22z" fill="#FAFCFC"/>
<path transform="translate(1442,255)" d="m0 0c0.66 0.33 1.32 0.66 2 1-4.46 5.24-11.9 6.66-18.5 7.21-2.72 0.117-5.43 0.164-8.15 0.167-0.886 0.00153-1.77 0.00306-2.68 0.00464-6.36-0.11-6.36-0.11-8.63-2.38 0.68-0.0501 1.36-0.1 2.06-0.152 3.13-0.234 6.25-0.479 9.38-0.723 1.07-0.0786 2.14-0.157 3.24-0.238 11.2-0.651 11.2-0.651 21.3-4.89z" fill="#F5F8F8"/>
<path transform="translate(272,204)" d="m0 0c2.23 3.35 2.24 4.42 2.2 8.32-0.00645 1.03-0.0129 2.06-0.0195 3.12-0.0168 1.07-0.0335 2.14-0.0508 3.25-0.00902 1.08-0.018 2.17-0.0273 3.28-0.0236 2.68-0.0565 5.35-0.0977 8.03-0.99-0.33-1.98-0.66-3-1-0.714-8.02-1.15-15.9-1-24l2-1z" fill="#FAFDFF"/>
<path transform="translate(862,109)" d="m0 0c-0.33 0.99-0.66 1.98-1 3-0.751-0.00524-1.5-0.0105-2.28-0.0159-3.43-0.0209-6.86-0.0338-10.3-0.0466-1.18-0.00838-2.36-0.0168-3.58-0.0254-5.73-0.016-11.2 0.0368-16.9 1.09v-2c11-4.14 22.5-3.37 34-2z" fill="#F8FAFB"/>
<path transform="translate(636,116)" d="m0 0c1.1 3.3 1.03 5.51 0.879 8.98-0.0483 1.16-0.0967 2.33-0.146 3.53-0.0561 1.21-0.112 2.43-0.17 3.68-0.0522 1.23-0.104 2.45-0.158 3.72-0.13 3.03-0.265 6.06-0.404 9.1-0.99-0.33-1.98-0.66-3-1-0.0869-4.1-0.14-8.21-0.188-12.3-0.0251-1.17-0.0503-2.33-0.0762-3.54-0.0145-1.68-0.0145-1.68-0.0293-3.39-0.0157-1.03-0.0314-2.06-0.0476-3.13 0.341-2.64 0.341-2.64 1.86-4.5 0.733-0.564 0.733-0.564 1.48-1.14z" fill="#F9FBFC"/>
<path transform="translate(729,130)" d="m0 0c0.33 0.99 0.66 1.98 1 3h3c0.0269 2.29 0.0464 4.58 0.0625 6.88 0.0116 1.28 0.0232 2.55 0.0352 3.87-0.0977 3.26-0.0977 3.26-1.1 5.26-0.99-0.33-1.98-0.66-3-1 0.0619-0.784 0.124-1.57 0.188-2.38-0.0619-0.866-0.124-1.73-0.188-2.62-0.99-0.66-1.98-1.32-3-2v-2h3v-2c-0.99-0.33-1.98-0.66-3-1v-2h3v-4z" fill="#FAFCFC"/>
<path transform="translate(967 81.9)" d="m0 0c0.92-0.00387 1.84-0.00773 2.79-0.0117 4.66 0.00671 9.06 0.175 13.7 1.14v1h-13v2h-13v-2h-8v-1c5.88-1.02 11.6-1.15 17.6-1.12z" fill="#FAFCFD"/>
<path transform="translate(558,168)" d="m0 0h2c0.43 10.4-0.859 20.7-2 31-2-2-2-2-2.27-4.98 0.0368-8.86 0.755-17.3 2.27-26z" fill="#F8FAFB"/>
<path transform="translate(1124 79.9)" d="m0 0c1.81 0.0135 1.81 0.0135 3.65 0.0273 2.95 0.0234 5.9 0.0562 8.85 0.0977v2c-0.56-0.00524-1.12-0.0105-1.7-0.0159-2.54-0.0208-5.08-0.0338-7.62-0.0466-0.881-0.00838-1.76-0.0168-2.67-0.0254-0.848-0.00322-1.7-0.00645-2.57-0.00977-0.78-0.00524-1.56-0.0105-2.36-0.0159-2.28 0.0321-2.28 0.0321-5.08 1.11 0.33 0.66 0.66 1.32 1 2h-10v-2c-0.99-0.33-1.98-0.66-3-1 7.2-2.26 14-2.23 21.5-2.12z" fill="#FBFCFD"/>
<path transform="translate(810 183)" d="m0 0c0.893 0.476 1.79 0.951 2.71 1.44 0.901 0.473 1.8 0.946 2.73 1.43 0.687 0.373 1.37 0.745 2.08 1.13v4c0.33 0.66 0.66 1.32 1 2-3.76-0.581-6.53-1.65-9.81-3.56-0.79-0.455-1.58-0.91-2.39-1.38-0.592-0.349-1.18-0.699-1.79-1.06 0.66-0.66 1.32-1.32 2-2-0.66-0.66-1.32-1.32-2-2 3-1 3-1 5.48-0.00391z" fill="#141516"/>
<path transform="translate(702,120)" d="m0 0c2 2 2 2 2.15 4.09-0.046 0.848-0.092 1.7-0.139 2.57-0.0471 0.941-0.0941 1.88-0.143 2.85-0.0599 0.987-0.12 1.97-0.182 2.99-0.0483 0.956-0.0967 1.91-0.146 2.9-0.333 6.22-0.865 12.4-1.54 18.6h-1c-0.2-3.62-0.383-7.25-0.562-10.9-0.0561-1.01-0.112-2.03-0.17-3.07-0.308-6.4-0.398-12.7 0.732-19.1 0.33-0.33 0.66-0.66 1-1z" fill="#F9FBFC"/>
<path transform="translate(485 74.8)" d="m0 0c0.781-0.0213 1.56-0.0425 2.37-0.0645 4.53-0.0275 6.77 0.421 10.2 3.31-24 0.206-24 0.206-33-1v-1c6.8-0.839 13.6-1.16 20.4-1.25z" fill="#FAFCFC"/>
<path transform="translate(947,212)" d="m0 0h1c0.33 1.65 0.66 3.3 1 5 0.99 0.33 1.98 0.66 3 1v-6h1c0.196 1.75 0.381 3.5 0.562 5.25 0.104 0.975 0.209 1.95 0.316 2.95 0.111 2.56-0.102 4.38-0.879 6.8-1.65 0.33-3.3 0.66-5 1-1.13-5.36-1.1-10.6-1-16z" fill="#FAFCFC"/>
<path transform="translate(928,128)" d="m0 0h2c-0.234 1.17-0.234 1.17-0.473 2.36-0.8 5.53-0.883 11.1-1.04 16.6-0.0342 0.869-0.0683 1.74-0.104 2.63-0.0251 0.789-0.0501 1.58-0.0759 2.39-0.303 1.97-0.303 1.97-2.3 3.97-3.04-9.12-0.701-19.1 2-28z" fill="#F8FBFB"/>
<path transform="translate(1250 134)" d="m0 0c1.23 0.0135 1.23 0.0135 2.48 0.0273 0.94 0.0174 0.94 0.0174 1.9 0.0352v4h2v4h-2v-2h-3v2h-2v-2c-0.598-0.144-1.2-0.289-1.81-0.438-1.75-0.45-3.47-0.991-5.19-1.56 0.33-0.99 0.66-1.98 1-3 2.41-1.2 3.95-1.1 6.62-1.06z" fill="#FAFCFC"/>
<path transform="translate(1137,78)" d="m0 0h-26v1h-9v-2c28.5-3.87 28.5-3.87 35 1z" fill="#F9FBFC"/>
<path transform="translate(1467,138)" d="m0 0c0.33 0.66 0.66 1.32 1 2 4.45-0.495 4.45-0.495 9-1v12h-3v-4c-2.31 0.33-4.62 0.66-7 1v-3h6c0.33-0.99 0.66-1.98 1-3-2.31 0.33-4.62 0.66-7 1v-5z" fill="#FAFCFC"/>
<path transform="translate(1130 104)" d="m0 0c1.26-0.0206 2.52-0.0413 3.82-0.0625 1.2-0.00516 2.41-0.0103 3.64-0.0156 1.11-0.00935 2.22-0.0187 3.36-0.0283 1.32 0.176 1.32 0.176 2.67 0.356 0.66 0.99 1.32 1.98 2 3h-31v-2c4.47-2.24 10.6-1.23 15.5-1.25z" fill="#EBF1F1"/>
<path transform="translate(229,205)" d="m0 0c0.33 0.99 0.66 1.98 1 3 0.66-0.33 1.32-0.66 2-1 4.01-0.547 5.63-0.239 9.06 2 3.32 3.08 6.18 6.81 7.94 11-0.33 0.99-0.66 1.98-1 3-0.471-0.699-0.941-1.4-1.43-2.12-0.623-0.91-1.25-1.82-1.89-2.76-0.615-0.905-1.23-1.81-1.86-2.74-1.99-2.6-3.6-4.13-6.87-4.8-1.06-0.104-1.06-0.104-2.14-0.211-1.26-0.124-2.52-0.248-3.81-0.375-0.33-1.65-0.66-3.3-1-5z" fill="#000002"/>
<path transform="translate(96,203)" d="m0 0c0.99 0.33 1.98 0.66 3 1v27c-0.66 0.33-1.32 0.66-2 1-0.0251-0.56-0.0501-1.12-0.0759-1.7-0.116-2.54-0.239-5.08-0.362-7.62-0.0393-0.881-0.0786-1.76-0.119-2.67-0.0419-0.848-0.0838-1.7-0.127-2.57-0.055-1.17-0.055-1.17-0.111-2.36-0.147-2.28-0.147-2.28-1.21-5.08 0.278-2.34 0.605-4.68 1-7z" fill="#EDF2F1"/>
<path transform="translate(166,93)" d="m0 0c1.62 0.966 3.2 1.99 4.75 3.06 0.799 0.548 1.6 1.1 2.42 1.66 0.603 0.422 1.21 0.843 1.83 1.28-0.99 0.33-1.98 0.66-3 1-0.928-0.474-1.86-0.949-2.81-1.44-3.41-1.67-5.45-1.83-9.19-1.56v2c-2.64 0.33-5.28 0.66-8 1 8.48-8.96 8.48-8.96 14-7z" fill="#050607"/>
<path transform="translate(319,108)" d="m0 0c3.52-0.0293 7.04-0.0469 10.6-0.0625 0.991-0.00838 1.98-0.0168 3-0.0254 5.26-0.0175 10.3 0.165 15.4 1.09-0.33 0.99-0.66 1.98-1 3-13.9-0.99-13.9-0.99-28-2v-2z" fill="#F9FBFC"/>
<path transform="translate(1349,184)" d="m0 0c3.77-0.029 7.54-0.0468 11.3-0.0625 1.07-0.00838 2.14-0.0168 3.25-0.0254 1.54-0.00483 1.54-0.00483 3.12-0.00977 0.948-0.00524 1.9-0.0105 2.87-0.0159 2.45 0.114 2.45 0.114 5.45 1.11-0.33 0.99-0.66 1.98-1 3v-2c-0.559 0.144-1.12 0.289-1.7 0.438-6.54 1.52-12.7 1.7-19.4 1.54-2.85-0.186-2.85-0.186-4.91 1.03 0.33-1.65 0.66-3.3 1-5z" fill="#F8FBFB"/>
<path transform="translate(166,121)" d="m0 0c1.36 0.959 2.7 1.96 4 3-1.1 0.00387-1.1 0.00387-2.23 0.00781-5.59 0.0655-5.59 0.0655-10.5 2.29-1.5 1.76-1.5 1.76-3.23 4.7-2 3-2 3-4.38 3.62-0.866 0.124-1.73 0.248-2.62 0.375-1.34 0.325-2.67 0.655-4 1 3.14-3.32 6.1-5.66 10-8 1.69-1.65 3.36-3.31 5-5 3.26-2.17 4.22-2.46 8-2z" fill="#F5F8F7"/>
<path transform="translate(811,157)" d="m0 0h6v3h-2c-0.33 2.64-0.66 5.28-1 8h-5c0.186-0.557 0.371-1.11 0.562-1.69 0.513-2.71 0.102-4.66-0.562-7.31h2v-2z" fill="#FAFCFC"/>
<path transform="translate(497,181)" d="m0 0h6v3h-4v2h4v3h-4c-0.33 0.99-0.66 1.98-1 3h-2v-3h-6v-1c1.98-0.33 3.96-0.66 6-1v-3h-6v-1h7v-2z" fill="#FAFCFC"/>
<path transform="translate(657,125)" d="m0 0h9c-0.33 0.99-0.66 1.98-1 3h-7c0.0348 0.626 0.0696 1.25 0.105 1.9 0.0271 0.817 0.0541 1.63 0.082 2.48 0.0348 0.812 0.0696 1.62 0.105 2.46-0.0967 0.714-0.193 1.43-0.293 2.16-0.99 0.66-1.98 1.32-3 2-0.66-1.98-1.32-3.96-2-6 0.66-0.66 1.32-1.32 2-2 0.714-1.98 1.39-3.98 2-6z" fill="#FAFCFC"/>
<path transform="translate(95,207)" d="m0 0c0.33 0.99 0.66 1.98 1 3-0.771 0.0864-1.54 0.173-2.34 0.262-1 0.141-2.01 0.281-3.04 0.426-0.998 0.128-2 0.255-3.02 0.387-2.85 0.681-2.85 0.681-3.95 3.51-0.214 0.798-0.428 1.6-0.648 2.42h-2c-0.66 1.98-1.32 3.96-2 6-0.33-0.99-0.66-1.98-1-3 3.95-7.79 7.79-13.7 17-13z" fill="#000102"/>
<path transform="translate(1311,249)" d="m0 0c-0.33 0.99-0.66 1.98-1 3-3.85 1.28-7.49 1.15-11.5 1.12-0.772 0.00387-1.54 0.00773-2.34 0.0117-3.31-0.00573-6-0.0846-9.16-1.14v-2c0.785 0.0954 1.57 0.191 2.38 0.289 7.78 0.821 14.2-1.74 21.6-1.29z" fill="#F9FBFB"/>
<path transform="translate(745,225)" d="m0 0h5v9c-2.31 0.33-4.62 0.66-7 1v-6h2v-4z" fill="#FAFCFC"/>
<path transform="translate(131,144)" d="m0 0c0.66 0.33 1.32 0.66 2 1-0.892 0.748-1.78 1.5-2.7 2.27-1.18 0.995-2.36 1.99-3.55 2.98-0.587 0.491-1.17 0.982-1.78 1.49-2.53 2.13-4.96 4.24-7.27 6.62-1.7 1.64-1.7 1.64-3.7 1.64-0.33 0.99-0.66 1.98-1 3-0.99-0.66-1.98-1.32-3-2 6.68-6.09 13.8-11.5 21-17z" fill="#F5F8F7"/>
<path transform="translate(591,253)" d="m0 0c-3.62 3.62-9.07 3.53-14 4-10.1-0.0871-10.1-0.0871-13-3 0.857 0.0116 1.71 0.0232 2.6 0.0352 8.21 0.0648 16.2-1.2 24.4-1.04z" fill="#F8FAFA"/>
<path transform="translate(1419,103)" d="m0 0v2c-7.93 1.02-16 1.63-24 1-0.66-0.66-1.32-1.32-2-2 8.69-0.72 17.3-1.14 26-1z" fill="#F8FBFC"/>
<path transform="translate(1380,155)" d="m0 0c0.33 0.33 0.66 0.66 1 1 2.05-0.409 2.05-0.409 4-1v3c-3.86 2.15-6.55 3.39-11 3-0.33-0.66-0.66-1.32-1-2 0.33-0.99 0.66-1.98 1-3 2-1 2-1 6-1z" fill="#FCFDFE"/>
<path transform="translate(700,140)" d="m0 0h1c0.365 4.42 0.715 8.83 1.06 13.2 0.104 1.25 0.208 2.51 0.314 3.8 0.14 1.81 0.14 1.81 0.283 3.65 0.089 1.11 0.178 2.22 0.27 3.36 0.0619 2.59-0.136 4.49-0.93 6.93-0.66-0.33-1.32-0.66-2-1v-30z" fill="#FBFDFF"/>
<path transform="translate(1524,135)" d="m0 0h2c-0.114 3.04-0.241 6.08-0.375 9.12-0.0309 0.856-0.0619 1.71-0.0938 2.59-0.22 4.77-0.723 8.8-2.53 13.3h-1c-0.277-8.55 0.48-16.6 2-25z" fill="#FAFCFE"/>
<path transform="translate(119,126)" d="m0 0 1 2c-2.16 2.31-4.38 4.02-7.06 5.69-1.04 0.655-1.04 0.655-2.1 1.32-1.84 0.988-1.84 0.988-3.84 0.988v2c-2.31 1.32-4.62 2.64-7 4v-3c1.74-1.53 1.74-1.53 4.16-3.14 0.857-0.577 1.71-1.15 2.6-1.75 0.906-0.595 1.81-1.19 2.75-1.8 0.906-0.607 1.81-1.21 2.75-1.84 2.25-1.5 4.5-2.99 6.75-4.47z" fill="#000102"/>
<path transform="translate(729 80.3)" d="m0 0c0.706 0.0354 1.41 0.0709 2.14 0.107 3.66 0.232 5.5 0.506 8.61 2.58h-17c-0.33 0.66-0.66 1.32-1 2h-3v-2h-8c5.55-3.7 11.8-3.12 18.2-2.69z" fill="#FAFCFC"/>
<path transform="translate(1138 75.1)" d="m0 0c0.931 0.0483 1.86 0.0967 2.82 0.146 0.96 0.0561 1.92 0.112 2.91 0.17 0.979 0.0522 1.96 0.104 2.97 0.158 2.41 0.129 4.81 0.264 7.22 0.404v2c-17.9 0.185-17.9 0.185-26-1v-1c3.48-0.809 6.52-1.08 10.1-0.879z" fill="#F3F7F7"/>
<path transform="translate(1265,189)" d="m0 0h2c0.33 3.3 0.66 6.6 1 10h-3v2h-5v-2c1.65-0.33 3.3-0.66 5-1v-2h-5v-2c1.65-0.33 3.3-0.66 5-1v-4z" fill="#FAFCFC"/>
<path transform="translate(1341,124)" d="m0 0h1v22h-2c-1.23-5.67-1.09-11.2-1-17h2v-5z" fill="#F9FBFB"/>
<path transform="translate(837 280)" d="m0 0c1.56 0.141 1.56 0.141 3.14 0.286 1.12 0.0967 2.24 0.193 3.4 0.293 1.18 0.112 2.35 0.224 3.56 0.34 1.18 0.104 2.37 0.209 3.59 0.316 2.93 0.26 5.86 0.53 8.79 0.809v1c-9.37 1.04-17.7 0.86-27-1 2-2 2-2 4.52-2.04z" fill="#FAFCFC"/>
<path transform="translate(926,165)" d="m0 0h2v21h-1v-7h-2c-0.0269-2.15-0.0463-4.29-0.0625-6.44-0.0116-1.19-0.0232-2.39-0.0352-3.62 0.0977-2.94 0.0977-2.94 1.1-3.94z" fill="#F9FBFB"/>
<path transform="translate(139,110)" d="m0 0 2 1c-1.95 2.38-3.12 3.04-6.12 4-1.42 0.495-1.42 0.495-2.88 1-0.33 0.99-0.66 1.98-1 3-1.78 1.39-1.78 1.39-3.94 2.69-0.71 0.437-1.42 0.874-2.15 1.32-1.91 0.988-1.91 0.988-3.91 0.988 1.5-3.98 3.73-5.4 7.31-7.56 0.945-0.579 1.89-1.16 2.86-1.75 1.4-0.833 1.4-0.833 2.82-1.68 0.901-0.587 1.8-1.17 2.73-1.78 0.749-0.403 1.5-0.807 2.27-1.22z" fill="#000102"/>
<path transform="translate(1102,160)" d="m0 0c0.33 1.32 0.66 2.64 1 4 1.65-0.33 3.3-0.66 5-1v5c-0.578-0.206-1.15-0.412-1.75-0.625-2.78-0.464-3.87 0.227-6.25 1.62h-1v-8c0.99-0.33 1.98-0.66 3-1z" fill="#FAFCFC"/>
<path transform="translate(399,156)" d="m0 0h3c0.39 1.77 0.762 3.54 1.12 5.31 0.209 0.986 0.418 1.97 0.633 2.99 0.242 2.7 0.242 2.7-1.76 5.7h-2c0.33-2.31 0.66-4.62 1-7h-2c-0.381-1.99-0.713-3.99-1-6 0.33-0.33 0.66-0.66 1-1z" fill="#FAFCFC"/>
<path transform="translate(97,143)" d="m0 0c0.66 0.33 1.32 0.66 2 1-2.92 4.08-5.75 6.32-10.1 8.75-1.05 0.593-2.11 1.19-3.2 1.8-1.55 0.84-3.1 1.67-4.68 2.45v-3c2.23-1.68 2.23-1.68 5.19-3.44 3.85-2.3 7.36-4.69 10.8-7.56z" fill="#000102"/>
<path transform="translate(186,110)" d="m0 0c4.5 1.59 8.32 3.89 12.3 6.44 0.645 0.395 1.29 0.79 1.96 1.2 1.63 1.04 3.19 2.19 4.73 3.37v3c-0.99-0.33-1.98-0.66-3-1v-2c-0.717-0.258-1.43-0.516-2.17-0.781-2.99-1.29-5.42-2.84-8.08-4.72-0.871-0.608-1.74-1.22-2.64-1.84-2.11-1.66-2.11-1.66-3.11-3.66z" fill="#000102"/>
<path transform="translate(1368 161)" d="m0 0c1.06 0.00677 1.06 0.00677 2.14 0.0137 1.74 0.0118 3.49 0.0297 5.23 0.0488-6.58 3.46-12.7 4.26-20 4 0.66-0.33 1.32-0.66 2-1 0.33-0.66 0.66-1.32 1-2 3.07-1.53 6.27-1.1 9.62-1.06z" fill="#F9FBFB"/>
<path transform="translate(1294 109)" d="m0 0c1.2 0.00483 1.2 0.00483 2.42 0.00977 0.825 0.00838 1.65 0.0168 2.5 0.0254 0.84 0.00451 1.68 0.00902 2.55 0.0137 2.07 0.0117 4.14 0.0297 6.2 0.0488v2c-10.9 0.495-10.9 0.495-22 1v-2c2.85-0.814 5.37-1.12 8.33-1.1z" fill="#F9FBFC"/>
<path transform="translate(170,193)" d="m0 0h1v8h2v4h-2v21h-1c-0.199-3.81-0.382-7.62-0.562-11.4-0.0561-1.07-0.112-2.14-0.17-3.24-0.287-6.25-0.148-12.1 0.732-18.3z" fill="#8D8D37"/>
<path transform="translate(96,169)" d="m0 0h2v36h-1c-0.0251-0.918-0.0501-1.84-0.0759-2.78-0.0953-3.41-0.195-6.83-0.296-10.2-0.0432-1.48-0.0849-2.95-0.125-4.43-0.058-2.12-0.122-4.25-0.186-6.37-0.0367-1.28-0.0733-2.56-0.111-3.87-0.164-2.63-0.553-4.78-1.21-7.3 0.33-0.33 0.66-0.66 1-1z" fill="#D7E4E6"/>
<path transform="translate(230,145)" d="m0 0c4.15 1.44 7.3 3.5 10.8 6.12 0.976 0.724 1.95 1.45 2.96 2.2 0.736 0.554 1.47 1.11 2.23 1.68-0.33 0.66-0.66 1.32-1 2-2.13-1.24-4.26-2.49-6.38-3.75-0.603-0.348-1.21-0.696-1.83-1.05-3.31-1.99-5.53-3.45-6.8-7.2z" fill="#000102"/>
<path transform="translate(296,220)" d="m0 0c2 2 2 2 2.2 3.95-0.0651 2.02-0.13 4.04-0.195 6.05h2c-0.33 2.64-0.66 5.28-1 8h-2c-0.956-4-1.1-7.71-1.06-11.8 0.00902-1.16 0.018-2.32 0.0273-3.52 0.0116-0.88 0.0232-1.76 0.0352-2.67z" fill="#F1F5F6"/>
<path transform="translate(396,196)" d="m0 0h3c0.027 1.79 0.0464 3.58 0.0625 5.38 0.0116 0.998 0.0232 2 0.0352 3.02-0.0977 2.6-0.0977 2.6-1.1 4.6h-2c-0.631-4.03-1.24-7.92-1-12 0.33-0.33 0.66-0.66 1-1z" fill="#FAFCFC"/>
<path transform="translate(884,172)" d="m0 0c0.33 0.66 0.66 1.32 1 2 0.33-0.33 0.66-0.66 1-1 7.46-0.361 7.46-0.361 11 2-3.21 1.07-5.69 1.2-9.06 1.25-1.6 0.0387-1.6 0.0387-3.22 0.0781-0.896-0.108-1.79-0.217-2.71-0.328-0.66-0.99-1.32-1.98-2-3 2-1 2-1 4-1z" fill="#F9FBFB"/>
<path transform="translate(1157,135)" d="m0 0c1.29 4.12 2.26 7.67 2 12-0.99-0.33-1.98-0.66-3-1-0.33-2.31-0.66-4.62-1-7h-6c1.56-3.11 4.6-4 8-4z" fill="#FAFCFC"/>
<path transform="translate(1475,230)" d="m0 0h2c1.29 2.59 1.17 4.55 1.19 7.44 0.0142 0.968 0.0284 1.94 0.043 2.93-0.23 2.63-0.23 2.63-2.23 5.63-1.14-3.42-1.1-6.09-1.06-9.69 0.00902-1.18 0.018-2.36 0.0273-3.57 0.0116-0.904 0.0232-1.81 0.0352-2.74z" fill="#F3F6F5"/>
<path transform="translate(956,176)" d="m0 0h3c0.125 5.75 0.125 5.75-1 8-0.356 1.66-0.692 3.33-1 5h-2c-0.0271-1.6-0.0464-3.21-0.0625-4.81-0.0116-0.893-0.0232-1.79-0.0352-2.71 0.0977-2.48 0.0977-2.48 1.1-5.48z" fill="#FAFCFC"/>
<path transform="translate(431,132)" d="m0 0h3v14h-2c-1.38-2.76-1.1-5.05-1.06-8.12 0.00902-1.1 0.018-2.19 0.0273-3.32 0.0116-0.843 0.0232-1.69 0.0352-2.55z" fill="#F9FBFB"/>
<path transform="translate(1383,224)" d="m0 0h1v21c-2.8-4.2-3.12-6.1-3.06-11.1 0.00902-1.1 0.018-2.19 0.0273-3.32 0.0116-0.843 0.0232-1.69 0.0352-2.55h2v-4z" fill="#F3F6F6"/>
<path transform="translate(1075,126)" d="m0 0h2v16h-2c-1.18-3.55-0.893-5.98-0.562-9.69 0.102-1.18 0.204-2.36 0.309-3.57 0.0838-0.904 0.168-1.81 0.254-2.74z" fill="#F9FBFB"/>
<path transform="translate(955,278)" d="m0 0h20c-5.79 2.9-11.3 3.69-17.6 2.06-0.784-0.351-1.57-0.701-2.38-1.06v-1z" fill="#F8FAFB"/>
<path transform="translate(860,258)" d="m0 0c0.33 0.66 0.66 1.32 1 2-7.02 1.1-13.9 1.1-21 1 6.32-3.37 13-3.14 20-3z" fill="#F7FAFA"/>
<path transform="translate(1515,133)" d="m0 0h2c1.29 2.59 1.17 4.55 1.19 7.44 0.0142 0.968 0.0284 1.94 0.043 2.93-0.23 2.63-0.23 2.63-2.23 5.63-0.853-3.67-1.11-7.04-1.06-10.8 0.00902-0.976 0.018-1.95 0.0273-2.96 0.0116-0.736 0.0232-1.47 0.0352-2.23z" fill="#E6EDEC"/>
<path transform="translate(167,120)" d="m0 0c0.66 0.99 1.32 1.98 2 3-1.2-0.248-2.39-0.495-3.62-0.75-3.58-0.457-4.34-0.267-7.75 1.5-2.76 2.16-2.76 2.16-4.62 5.25h-2c2.63-7.09 8.78-10.8 16-9z" fill="#EAEFEE"/>
<path transform="translate(752,225)" d="m0 0h3v14h-1v-5c-0.99-0.33-1.98-0.66-3-1 0.33-2.64 0.66-5.28 1-8z" fill="#FAFCFC"/>
<path transform="translate(1484,168)" d="m0 0c0.33 0.99 0.66 1.98 1 3-2.42 1.95-4.19 3.01-7.34 2.98-2.24-0.261-4.45-0.576-6.66-0.977v-1h6v-3c3.46-0.495 3.46-0.495 7-1z" fill="#F8FAFA"/>
<path transform="translate(788,148)" d="m0 0h3v13c-0.99-0.33-1.98-0.66-3-1v-12z" fill="#F9FBFC"/>
<path transform="translate(1371,118)" d="m0 0c0.66 0.99 1.32 1.98 2 3 1.32-0.99 2.64-1.98 4-3 0.33 1.65 0.66 3.3 1 5-4.95 1.48-4.95 1.48-10 3 0-5 0-5 1.5-6.81 0.495-0.392 0.99-0.784 1.5-1.19z" fill="#FAFCFC"/>
<path transform="translate(172,158)" d="m0 0c2.12 0.375 2.12 0.375 4 1-5.17 5.91-5.17 5.91-9.38 6.38-1.3-0.186-1.3-0.186-2.62-0.375 0.33-0.99 0.66-1.98 1-3 1.65-0.717 3.31-1.38 5-2l2-2z" fill="#F9FBFB"/>
<path transform="translate(739,256)" d="m0 0 3 3h-19c-0.33-0.66-0.66-1.32-1-2 0.808 0.0116 1.62 0.0232 2.45 0.0352 1.07 0.00902 2.14 0.018 3.24 0.0273 1.58 0.0174 1.58 0.0174 3.2 0.0352 3.08 0.0162 3.08 0.0162 5.82-0.789 0.757-0.102 1.51-0.204 2.29-0.309z" fill="#F9FAFB"/>
<path transform="translate(432,217)" d="m0 0h1c1.07 6.03 1.1 11.9 1 18-3-3-2.97-5.23-3.12-9.44 0.106-3.01 0.418-5.65 1.12-8.56z" fill="#F5F8F7"/>
<path transform="translate(986,213)" d="m0 0h3c0.33 0.99 0.66 1.98 1 3 1.63 1.71 3.29 3.38 5 5-0.33 0.66-0.66 1.32-1 2-4.27-1.58-6.27-4.51-9-8 0.33-0.66 0.66-1.32 1-2z" fill="#F9FBFC"/>
<path transform="translate(1275,169)" d="m0 0c2.19 3.28 3 6.21 4 10h-4c-0.99-2.31-1.98-4.62-3-7 0.99-0.99 1.98-1.98 3-3z" fill="#0A0D0D"/>
<path transform="translate(1522,119)" d="m0 0c0.33 3.3 0.66 6.6 1 10h-2c-0.33-0.66-0.66-1.32-1-2-0.66 0.66-1.32 1.32-2 2-0.33-2.97-0.66-5.94-1-9 3-1 3-1 5-1z" fill="#FBFDFF"/>
<path transform="translate(690,258)" d="m0 0c0.66 1.32 1.32 2.64 2 4-3.3 1.72-6.33 3.29-10 4 0.33-0.99 0.66-1.98 1-3h2c0.124-0.639 0.247-1.28 0.375-1.94 0.206-0.681 0.413-1.36 0.625-2.06 2-1 2-1 4-1z" fill="#F4F7F8"/>
<path transform="translate(1384,230)" d="m0 0h2v19h-2c-1.18-3.73-1.13-7.29-1.12-11.2-0.00258-1.25-0.00516-2.5-0.00781-3.79 0.133-3.02 0.133-3.02 1.13-4.02z" fill="#F9FBFB"/>
<path transform="translate(1114,195)" d="m0 0h3c0.367 7.47 0.367 7.47-1.38 10-1.62 1-1.62 1-3.62 1v-3c0.66-0.33 1.32-0.66 2-1-0.278-1.18-0.278-1.18-0.562-2.38-0.438-2.62-0.438-2.62 0.562-4.62z" fill="#FAFCFC"/>
<path transform="translate(1364,229)" d="m0 0v12c-0.99-0.33-1.98-0.66-3-1v-10c2-1 2-1 3-1z" fill="#111213"/>
<path transform="translate(865,157)" d="m0 0c2.38-0.125 2.38-0.125 5 0 0.66 0.66 1.32 1.32 2 2 0.66 0.33 1.32 0.66 2 1v7c-3.27-3.15-6.13-6.49-9-10z" fill="#F9FBFB"/>
<path transform="translate(1071,85)" d="m0 0c0.66 0.33 1.32 0.66 2 1-0.99 0.33-1.98 0.66-3 1v3c-3.46 1.48-3.46 1.48-7 3v2c-0.99-0.33-1.98-0.66-3-1 3.43-3.64 6.8-6.36 11-9z" fill="#7D7F80"/>
<path transform="translate(197,212)" d="m0 0h1c0.33 4.62 0.66 9.24 1 14-0.99-0.33-1.98-0.66-3-1-0.027-1.79-0.0464-3.58-0.0625-5.38-0.0116-0.998-0.0232-2-0.0352-3.02 0.0977-2.6 0.0977-2.6 1.1-4.6z" fill="#D9E5E7"/>
<path transform="translate(495,105)" d="m0 0c6.93 0.495 6.93 0.495 14 1v2h-13c-0.33-0.99-0.66-1.98-1-3z" fill="#F8FBFB"/>
<path transform="translate(669,177)" d="m0 0h2v12h-2c-0.196-1.44-0.381-2.87-0.562-4.31-0.104-0.801-0.209-1.6-0.316-2.43-0.121-2.26-0.121-2.26 0.879-5.26z" fill="#FAFCFC"/>
<path transform="translate(407,112)" d="m0 0c2.97 0.33 5.94 0.66 9 1-0.66 1.65-1.32 3.3-2 5-3.46-1.98-3.46-1.98-7-4v-2z" fill="#F6F9F9"/>
<path transform="translate(1351,206)" d="m0 0c0.99 1.32 1.98 2.64 3 4-0.438 2.12-0.438 2.12-1 4 0.66 0.66 1.32 1.32 2 2v2h-2c-0.33 0.66-0.66 1.32-1 2v-3h-2c0.33-3.63 0.66-7.26 1-11z" fill="#FCFDFF"/>
<path transform="translate(1310,197)" d="m0 0h1c0.0271 1.44 0.0465 2.87 0.0625 4.31 0.0116 0.801 0.0232 1.6 0.0352 2.43-0.0977 2.26-0.0977 2.26-1.1 5.26h-2v-10h2v-2z" fill="#FAFCFC"/>
<path transform="translate(217,188)" d="m0 0h2v11h-2c-1.49-2.99-1.12-5.71-1-9 0.33-0.66 0.66-1.32 1-2z" fill="#D7E3E6"/>
<path transform="translate(179,131)" d="m0 0c0.99 0.33 1.98 0.66 3 1v2c1.32 0.33 2.64 0.66 4 1v2h3v2c-2.88-0.25-2.88-0.25-6-1-1.38-2.06-1.38-2.06-2-4h-2v-3z" fill="#F4F7F6"/>
<path transform="translate(1456 274)" d="m0 0c0.516 0.248 1.03 0.495 1.56 0.75-2.52 3.12-3.73 3.95-7.75 4.75-1.61 0.124-1.61 0.124-3.25 0.25v-2c6.4-4.06 6.4-4.06 9.44-3.75z" fill="#F8FBFC"/>
<path transform="translate(299,247)" d="m0 0c1.94 0.812 1.94 0.812 4 2 0.33 0.99 0.66 1.98 1 3h2c-0.33 1.32-0.66 2.64-1 4h-2c-0.669-1.31-1.34-2.62-2-3.94-0.371-0.731-0.743-1.46-1.12-2.21-0.875-1.85-0.875-1.85-0.875-2.85z" fill="#F9FBFB"/>
<path transform="translate(382,231)" d="m0 0h4v6h-2v3h-2v-9z" fill="#FAFCFC"/>
<path transform="translate(1298,221)" d="m0 0c2.31 0.33 4.62 0.66 7 1v6h-3c-0.33-1.65-0.66-3.3-1-5h-3v-2z" fill="#FAFCFC"/>
<path transform="translate(473,178)" d="m0 0h4v5c0.66 0.33 1.32 0.66 2 1h-8c0.66-0.33 1.32-0.66 2-1v-5z" fill="#FAFCFC"/>
<path transform="translate(1279,164)" d="m0 0h3c0.253 5.07-0.664 9.16-2 14h-1v-14z" fill="#FBFDFF"/>
<path transform="translate(190,139)" d="m0 0h2v2c0.572 0.0915 1.14 0.183 1.73 0.277 2.82 0.9 4.34 2.29 6.52 4.29 0.706 0.641 1.41 1.28 2.14 1.94 0.531 0.494 1.06 0.987 1.61 1.5-3.56 0-4.27-0.717-7-2.88-2.3-1.81-4.56-3.5-7-5.12v-2z" fill="#ECF0EF"/>
<path transform="translate(767,113)" d="m0 0c2.27 2.46 2.97 3.74 3.31 7.12-0.312 2.88-0.312 2.88-2.31 4.88-1.47-4.41-2.37-7.48-1-12z" fill="#FAFCFD"/>
<path transform="translate(1439,217)" d="m0 0h3v9h-3c-1.16-3.48-0.708-5.46 0-9z" fill="#FAFCFC"/>
<path transform="translate(267,126)" d="m0 0c0.99 0.33 1.98 0.66 3 1-0.66 3.96-1.32 7.92-2 12h-2c-0.0765-4.52-0.102-8.59 1-13z" fill="#FAFCFD"/>
<path transform="translate(577,116)" d="m0 0c0.66 0.33 1.32 0.66 2 1-2.31 3.3-4.62 6.6-7 10-1-4-1-4 0.812-7.19 2.19-2.81 2.19-2.81 4.19-3.81z" fill="#F9FBFC"/>
<path transform="translate(1053,115)" d="m0 0c2.19 1.19 2.19 1.19 4 3v4c-2.47-0.99-2.47-0.99-5-2v-2h-2v-2c0.99-0.33 1.98-0.66 3-1z" fill="#EEF3F3"/>
<path transform="translate(434,233)" d="m0 0h2c0.144 1.07 0.289 2.15 0.438 3.25 0.4 2.67 0.838 5.16 1.56 7.75-0.66-0.33-1.32-0.66-2-1v-2h-2c-1.12-5.75-1.12-5.75 0-8z" fill="#F9FBFB"/>
<path transform="translate(1465,192)" d="m0 0c1.68 0.286 3.34 0.618 5 1v2h-3c0.309 0.928 0.309 0.928 0.625 1.88 0.124 0.701 0.247 1.4 0.375 2.12-0.66 0.66-1.32 1.32-2 2-2.15-3.22-2.29-4.28-2-8 0.33-0.33 0.66-0.66 1-1z" fill="#F3F6F6"/>
<path transform="translate(857 109)" d="m0 0c0.892 0.018 1.78 0.0361 2.7 0.0547 1.01 0.0348 1.01 0.0348 2.05 0.0703-0.33 0.99-0.66 1.98-1 3-4.29-0.33-8.58-0.66-13-1 3.87-1.93 5.15-2.23 9.25-2.12z" fill="#F9FBFC"/>
<path transform="translate(251,230)" d="m0 0 1 4z" fill="#000102"/>
<path transform="translate(250,226)" d="m0 0 1 4z" fill="#000102"/>
</svg>
